<?xml version="1.0" encoding="utf-8"?>
<!-- Generator: Adobe Illustrator 21.0.2, SVG Export Plug-In . SVG Version: 6.00 Build 0)  -->
<svg version="1.1" id="Layer_1" xmlns="http://www.w3.org/2000/svg" xmlns:xlink="http://www.w3.org/1999/xlink" x="0px" y="0px"
	 viewBox="0 0 500 348" style="enable-background:new 0 0 500 348;" xml:space="preserve">
<style type="text/css">
	.st0{fill:#E1E7E7;}
	.st1{fill:#F6FBFF;}
	.st2{fill:#508FFF;}
	.st3{fill:#196DD1;}
	.st4{fill:#FFFFFF;}
	.st5{fill:#E3E3E3;}
	.st6{fill:#443A50;}
	.st7{fill:#3E354A;}
	.st8{fill:#E1E1E1;}
	.st9{fill:#40374C;}
	.st10{fill:#ACA9B0;}
	.st11{fill:#D57743;}
	.st12{fill:#D0D0CE;}
	.st13{fill:#D1D1CF;}
	.st14{fill:#E6E6E6;}
	.st15{fill:#1D1D28;}
	.st16{fill:#9EACAF;}
	.st17{fill:#1A2E35;}
	.st18{fill:#FF9C4A;}
	.st19{fill:#F5F5F5;}
	.st20{fill:#2A4E96;}
	.st21{fill:#C78976;}
	.st22{fill:#BF654E;}
	.st23{fill:#FFBF9D;}
	.st24{fill:#FF4F5B;}
	.st25{fill:#233862;}
	.st26{fill:#16263F;}
	.st27{fill:#FF9A6C;}
	.st28{fill:#375A64;}
	.st29{fill:#2F2E41;}
	.st30{fill:#1C1C26;}
	.st31{fill:#D37543;}
	.st32{fill:#241F2D;}
	.st33{fill:#2B2A25;}
	.st34{fill:#729AF1;}
	.st35{fill:#41374C;}
	.st36{fill:#2B2433;}
	.st37{fill:#B7B29E;}
	.st38{fill:#969283;}
	.st39{fill:#777464;}
	.st40{opacity:0.4;fill:#969283;}
	.st41{fill:#B6D8D5;}
	.st42{opacity:0.78;fill:#FFFFFF;}
	.st43{fill:#72726F;}
	.st44{fill:#B52C1A;}
	.st45{fill:#F23325;}
	.st46{fill:#A6C6FF;}
	.st47{fill:#3D79FC;}
	.st48{fill:#FD8633;}
</style>
<g>
	<g>
		<g>
			<path class="st0" d="M372.3,342.9c0,0,127.7-32.1,127.7-139.7s-80.5-123.5-123.7-121c-26,1.5-62.9,14-85.6-28.1
				C267.9,12,218.4,0,185.7,0s-111,38.1-111,118.3s25.4,88.2,31.4,119.7s-35.4,68.9-35.4,105H372.3z"/>
			<path class="st0" d="M75.1,221.5c-11.9-11.6-49.9-27.9-69.3,17.2s14,65.7,29.1,65.7c17.2,0,36.2-11.2,43.1-35.1
				C83.3,251.2,83.7,229.8,75.1,221.5z"/>
			<path class="st0" d="M378.9,61.3c8.1-10.9,16.3-42.3-24.8-49.4s-53.5,21.4-51.3,32.8c2.5,13,14.8,25.4,36,26.7
				C355,72.4,373.1,69.1,378.9,61.3z"/>
		</g>
		<path class="st1" d="M431.5,133.9c0,0,2.4-4.4,8.1-4c0,0,8.3-7.4,17.2-1c0,0,9.4-1.6,16.4,1.4c4.7,2,6.2,4.1,6.2,4.1L431.5,133.9z
			"/>
		<g>
			<path class="st2" d="M425.6,107.3l-33.4-8.6c-2.2-0.8-4.6-1.2-6.9-1.2c-2.3,0-4.7,0.4-6.9,1.2l-33.4,8.6
				c-7.4,2.7-9.9,9.4-9.9,18.2c0,0,0,15,0,26.5c0,1.5,0,20,11.1,36.6c9.9,14.7,30.5,28.9,30.5,28.9c3,2.1,5.8,3.2,8.7,3.3
				c2.8-0.2,5.7-1.2,8.7-3.3c0,0,20.6-14.2,30.5-28.9c11.1-16.6,11.1-35.1,11.1-36.6c0-11.5,0-26.5,0-26.5
				C435.5,116.7,433,110,425.6,107.3z"/>
			<path class="st3" d="M412.3,124.3l-22.5-5.8c-1.5-0.6-3.1-0.8-4.6-0.8s-3.1,0.3-4.6,0.8l-22.5,5.8c-5,1.8-6.7,6.3-6.7,12.2
				c0,0,0,10.1,0,17.8c0,1,0,13.4,7.5,24.6c6.6,9.9,20.5,19.4,20.5,19.4c2,1.4,3.9,2.1,5.8,2.3c1.9-0.1,3.8-0.8,5.8-2.3
				c0,0,13.8-9.5,20.5-19.4c7.5-11.2,7.5-23.6,7.5-24.6c0-7.8,0-17.8,0-17.8C419,130.6,417.3,126.1,412.3,124.3z"/>
			<polygon class="st4" points="372.5,151.2 367,156.7 380.5,170.2 403.4,147.4 398.2,142 380.7,159.7 			"/>
		</g>
		<path class="st5" d="M385.1,338.7c-0.2,0.1-0.3,0-0.3,0C384.9,338.6,385,338.7,385.1,338.7z"/>
		<path class="st5" d="M385.1,338.7C385.1,338.7,385.2,338.7,385.1,338.7L385.1,338.7C385.2,338.7,385.1,338.7,385.1,338.7z"/>
		<g>
			<path class="st5" d="M87.8,342.8c-26.4-5.6-34.4-21.1-34.4-21.1c24.1-4.4,42.9,5,42.9,5c-12.5-12.9-12-30-12-30
				c16.9,4.4,27.2,21.9,27.2,21.9c-0.4-7.1,1.7-10.4,1.7-10.4c16.5,11.2,15.5,34.6,15.5,34.6H87.8z"/>
			<g>
				<path class="st5" d="M33.3,331.4C53,329.3,60,342.8,60,342.8H42.6C35.7,338.8,33.3,331.4,33.3,331.4z"/>
				<path class="st5" d="M42.5,342.8H19.1c-7.4-1-9.7-4.5-9.7-4.5C30.7,336.9,40.7,341.8,42.5,342.8z"/>
			</g>
		</g>
		<path class="st6" d="M468.5,348H23.8c-1.4,0-2.6-1.2-2.6-2.6l0,0c0-1.4,1.2-2.6,2.6-2.6h444.7c1.4,0,2.6,1.2,2.6,2.6l0,0
			C471.1,346.8,469.9,348,468.5,348z"/>
		<g>
			<g>
				<g>
					<path class="st7" d="M236.6,71.1h-11.6c-0.1-2.2-1.9-3.9-4.1-3.9h-11.3c-2.2,0-4,1.7-4.1,3.9H194c-5.2,0-9.4,4.2-9.4,9.4v0
						c0,2.2,1.8,4,4,4h53.6c2.2,0,4-1.8,4-4v0C246.1,75.4,241.8,71.1,236.6,71.1z"/>
					<path class="st2" d="M302.2,342.9l-174.4-0.4c-4.3,0-7.8-3.5-7.7-7.8l0.6-248c0-4.3,3.5-7.8,7.8-7.7l174.4,0.4
						c4.3,0,7.8,3.5,7.7,7.8l-0.6,248C310,339.4,306.5,342.9,302.2,342.9z"/>
					<path class="st4" d="M283,328.7l-135.8-0.3c-4.6,0-8.3-3.7-8.3-8.3l0.5-218.5c0-4.6,3.7-8.3,8.3-8.3l135.8,0.3
						c4.6,0,8.3,3.7,8.3,8.3l-0.5,218.5C291.3,324.9,287.6,328.7,283,328.7z"/>
					<g>
						<g>
							<g>
								<path class="st8" d="M232.2,125.1h-72.9c-1.6,0-2.9-1.3-2.9-2.9V122c0-1.6,1.3-2.9,2.9-2.9h72.9c1.6,0,2.9,1.3,2.9,2.9v0.1
									C235.1,123.7,233.8,125.1,232.2,125.1z"/>
							</g>
							<g>
								<path class="st8" d="M232.2,154.9h-72.9c-1.6,0-2.9-1.3-2.9-2.9v-0.1c0-1.6,1.3-2.9,2.9-2.9h72.9c1.6,0,2.9,1.3,2.9,2.9v0.1
									C235.1,153.6,233.8,154.9,232.2,154.9z"/>
							</g>
							<g>
								<path class="st8" d="M212.8,140h-53.8c-1.4,0-2.5-1.1-2.5-2.5v-0.9c0-1.4,1.1-2.5,2.5-2.5h53.8c1.4,0,2.5,1.1,2.5,2.5v0.9
									C215.3,138.8,214.1,140,212.8,140z"/>
							</g>
							<g>
								<path class="st8" d="M212.8,169.8h-53.8c-1.4,0-2.5-1.1-2.5-2.5v-0.9c0-1.4,1.1-2.5,2.5-2.5h53.8c1.4,0,2.5,1.1,2.5,2.5v0.9
									C215.3,168.7,214.1,169.8,212.8,169.8z"/>
							</g>
						</g>
					</g>
					<g>
						<g>
							<path class="st7" d="M229.3,97.8h-28c-6,0-10.8-4.8-10.8-10.8v-0.2c0-6,4.8-10.8,10.8-10.8h28c6,0,10.8,4.8,10.8,10.8V87
								C240.1,92.9,235.3,97.8,229.3,97.8z M201.3,79c-4.3,0-7.7,3.5-7.7,7.7V87c0,4.3,3.5,7.7,7.7,7.7h28c4.3,0,7.7-3.5,7.7-7.7
								v-0.2c0-4.3-3.5-7.7-7.7-7.7H201.3z"/>
						</g>
					</g>
				</g>
				<g>
					<g>
						<path class="st9" d="M243.3,227.8l6.5-5.8l25.7-42.9c0,0,5.7-5.7,15.3-24.1c5.4-11.5,6.7-16.5,6.2-21.9s-7.3-2.1-10.8,3.2
							c0,0-0.3,0.3-0.7,0.8c-2.7,3-12.5,14.7-17.8,31c-1,3-2,6.5-1.8,5.9l-15.7,31.6l-6.5,12.8l-1.3,8.9l-0.5,2.2L243.3,227.8z"/>
						<path class="st10" d="M285.8,136.8l-0.3-2.4c-13.6,0.7-17.2,12.5-15.9,22.1c0.3,7.9-1.6,7.6-3.6,8.3c-2,0.7-0.4,1.6-0.4,1.6
							c7.3,0.6,5.9-12.5,5.9-14.2c0.1-14.2,12.2-15.8,12.2-15.8l0.1,2.7l11.3,6.1l1.1-3.3L285.8,136.8z"/>
						<polygon class="st11" points="266,173.7 275.5,179.1 257.2,209.6 250.5,205.1 						"/>
						<polygon class="st12" points="243.8,218.3 249.8,222 243.3,227.8 242.4,227.3 						"/>
					</g>
					<path class="st12" d="M279.5,231.4h-44.6c-0.4,0-0.7-0.3-0.7-0.7l0,0c0-0.4,0.3-0.7,0.7-0.7h44.6c0.4,0,0.7,0.3,0.7,0.7l0,0
						C280.1,231.1,279.8,231.4,279.5,231.4z"/>
				</g>
			</g>
			<g>
				<polygon class="st13" points="196,209.2 188.9,212.6 181.7,209.2 174.9,223.2 180.3,222.4 183,227.2 188.9,215.2 194.7,227.2 
					197.4,222.4 202.8,223.2 				"/>
				<path class="st14" d="M206.7,202.8c0-1.1-2.1-2-2.3-3.1c-0.2-1.1,1.4-2.7,1-3.7c-0.4-1-2.7-1-3.3-1.9c-0.6-0.9,0.3-3.1-0.5-3.8
					c-0.8-0.8-2.9,0.1-3.8-0.5c-0.9-0.6-0.9-2.9-1.9-3.3c-1-0.4-2.7,1.2-3.7,1c-1.1-0.2-2-2.3-3.1-2.3c-1.1,0-2,2.1-3.1,2.3
					c-1.1,0.2-2.7-1.4-3.7-1c-1,0.4-1,2.7-1.9,3.3c-0.9,0.6-3.1-0.3-3.8,0.5c-0.8,0.8,0.1,2.9-0.5,3.8c-0.6,0.9-2.9,0.9-3.3,1.9
					c-0.4,1,1.2,2.7,1,3.7c-0.2,1.1-2.3,2-2.3,3.1c0,1.1,2.1,2,2.3,3.1c0.2,1.1-1.4,2.7-1,3.7c0.4,1,2.7,1,3.3,1.9
					c0.6,0.9-0.3,3.1,0.5,3.8c0.8,0.8,2.9-0.1,3.8,0.5c0.9,0.6,0.9,2.9,1.9,3.3c1,0.4,2.7-1.2,3.7-1c1.1,0.2,2,2.3,3.1,2.3
					c1.1,0,2-2.1,3.1-2.3c1.1-0.2,2.7,1.4,3.7,1c1-0.4,1-2.7,1.9-3.3c0.9-0.6,3.1,0.3,3.8-0.5c0.8-0.8-0.1-2.9,0.5-3.8
					c0.6-0.9,2.9-0.9,3.3-1.9c0.4-1-1.2-2.7-1-3.7C204.5,204.8,206.7,203.9,206.7,202.8z"/>
				<circle class="st13" cx="188.9" cy="202.8" r="13"/>
				<path class="st14" d="M188.3,197l-1.4,2.8c-0.1,0.2-0.3,0.3-0.5,0.3l-3.1,0.4c-0.5,0.1-0.7,0.7-0.4,1.1l2.2,2.2
					c0.2,0.1,0.2,0.4,0.2,0.6l-0.5,3.1c-0.1,0.5,0.5,0.9,0.9,0.7l2.7-1.4c0.2-0.1,0.4-0.1,0.6,0l2.7,1.4c0.5,0.2,1-0.2,0.9-0.7
					l-0.5-3.1c0-0.2,0-0.4,0.2-0.6l2.2-2.2c0.4-0.4,0.2-1-0.4-1.1l-3.1-0.4c-0.2,0-0.4-0.2-0.5-0.3l-1.4-2.8
					C189.2,196.5,188.5,196.5,188.3,197z"/>
			</g>
		</g>
		<g>
			<path class="st5" d="M173.4,342.8c-16.3-3.5-21.3-13.1-21.3-13.1c14.9-2.7,26.5,3.1,26.5,3.1c-7.7-8-7.4-18.6-7.4-18.6
				c10.4,2.7,16.9,13.5,16.9,13.5c-0.2-4.4,1.1-6.4,1.1-6.4c10.2,7,9.6,21.4,9.6,21.4H173.4z"/>
			<g>
				<path class="st5" d="M139.7,335.7c12.2-1.3,16.5,7,16.5,7h-10.8C141.2,340.3,139.7,335.7,139.7,335.7z"/>
				<path class="st5" d="M145.4,342.8H131c-4.6-0.6-6-2.8-6-2.8C138.1,339.1,144.3,342.1,145.4,342.8z"/>
			</g>
		</g>
		<g>
			<g>
				<g>
					<g>
						<g>
							<g>
								<g>
									<path class="st15" d="M83.7,329l-0.6,8.5c0,0,8.5,3.5,8.5,5L75,342l0.4-13.3L83.7,329z"/>
								</g>
							</g>
							<g>
								<g>
									<path class="st15" d="M75,342l0.1-1.3l15.8,1c0,0,0.7,0.3,0.6,0.9L75,342z"/>
								</g>
							</g>
							<g>
								<g>
									<g>
										<path class="st16" d="M83.4,337.4c0,0.1-0.4,0.1-0.8,0.4c-0.4,0.2-0.6,0.6-0.7,0.5c-0.1,0,0.1-0.5,0.6-0.8
											C82.9,337.2,83.4,337.4,83.4,337.4z"/>
									</g>
								</g>
							</g>
							<g>
								<g>
									<g>
										<path class="st16" d="M85.1,338.2c0,0.1-0.3,0.2-0.6,0.5c-0.3,0.3-0.4,0.7-0.5,0.7c-0.1,0-0.1-0.5,0.2-0.9
											C84.6,338.2,85.1,338.1,85.1,338.2z"/>
									</g>
								</g>
							</g>
							<g>
								<g>
									<g>
										<path class="st16" d="M86,340.3c-0.1,0-0.2-0.4,0-0.8c0.2-0.4,0.6-0.6,0.6-0.5c0,0.1-0.2,0.3-0.4,0.7
											C86.1,340,86.1,340.3,86,340.3z"/>
									</g>
								</g>
							</g>
							<g>
								<g>
									<g>
										<path class="st16" d="M83.3,335.5c0,0.1-0.4-0.1-0.9,0c-0.5,0-0.8,0.1-0.9,0.1c0-0.1,0.3-0.3,0.9-0.4
											C83,335.1,83.3,335.4,83.3,335.5z"/>
									</g>
								</g>
							</g>
						</g>
						<g>
							<g>
								<g>
									<path class="st17" d="M83.4,333.8c0,0-0.3,0.1-0.8,0c-0.3-0.1-0.5-0.1-0.9-0.3c-0.2-0.1-0.3-0.2-0.5-0.3
										c-0.1-0.1-0.2-0.1-0.2-0.2c-0.1-0.1-0.1-0.3,0-0.4c0.1-0.1,0.2-0.2,0.4-0.2c0.1,0,0.2,0,0.3,0.1c0.2,0.1,0.4,0.1,0.5,0.2
										c0.3,0.2,0.6,0.3,0.7,0.5C83.3,333.5,83.4,333.8,83.4,333.8c-0.1,0.1-0.2-0.2-0.6-0.5c-0.2-0.2-0.4-0.3-0.7-0.4
										c-0.1-0.1-0.3-0.1-0.5-0.2c-0.2-0.1-0.3-0.1-0.4,0c0,0,0,0,0,0.1c0,0,0.1,0.1,0.2,0.1c0.1,0.1,0.3,0.2,0.4,0.3
										c0.3,0.2,0.6,0.3,0.8,0.3C83.1,333.7,83.4,333.7,83.4,333.8z"/>
								</g>
							</g>
						</g>
						<g>
							<g>
								<g>
									<path class="st17" d="M83.3,333.9c0,0-0.2-0.3-0.2-0.8c0-0.3,0-0.6,0.1-0.9c0.1-0.2,0.1-0.3,0.2-0.5
										c0.1-0.2,0.2-0.4,0.5-0.4c0.2,0,0.3,0.1,0.3,0.2c0.1,0.1,0.1,0.2,0.1,0.3c0,0.2,0,0.4,0,0.6c-0.1,0.4-0.2,0.6-0.4,0.8
										c-0.3,0.4-0.7,0.5-0.7,0.5c0,0,0.3-0.2,0.5-0.6c0.1-0.2,0.2-0.5,0.3-0.8c0-0.2,0-0.3,0-0.5c0-0.2-0.1-0.3-0.1-0.3
										c-0.1,0-0.2,0.1-0.3,0.3c-0.1,0.1-0.2,0.3-0.2,0.4c-0.1,0.3-0.2,0.6-0.2,0.8C83.2,333.6,83.3,333.9,83.3,333.9z"/>
								</g>
							</g>
						</g>
					</g>
				</g>
				<g>
					<g>
						<g>
							<g>
								<g>
									<g>
										<path class="st15" d="M62.9,328.6l-0.6,8.5c0,0,8.5,3.5,8.5,5l-16.6-0.6l0.4-13.3L62.9,328.6z"/>
									</g>
								</g>
							</g>
							<g>
								<g>
									<g>
										<path class="st15" d="M54.2,341.6l0.1-1.3l15.8,1c0,0,0.7,0.3,0.6,0.9L54.2,341.6z"/>
									</g>
								</g>
							</g>
							<g>
								<g>
									<g>
										<path class="st16" d="M62.6,337.1c0,0.1-0.4,0.1-0.8,0.4c-0.4,0.2-0.6,0.6-0.7,0.5c-0.1,0,0.1-0.5,0.6-0.8
											C62.1,336.9,62.6,337,62.6,337.1z"/>
									</g>
								</g>
							</g>
							<g>
								<g>
									<g>
										<path class="st16" d="M64.3,337.8c0,0.1-0.3,0.2-0.6,0.5c-0.3,0.3-0.4,0.7-0.5,0.7c-0.1,0-0.1-0.5,0.2-0.9
											C63.8,337.8,64.3,337.8,64.3,337.8z"/>
									</g>
								</g>
							</g>
							<g>
								<g>
									<g>
										<path class="st16" d="M65.2,339.9c-0.1,0-0.2-0.4,0-0.8c0.2-0.4,0.6-0.6,0.6-0.5c0,0.1-0.2,0.3-0.4,0.7
											C65.3,339.6,65.3,339.9,65.2,339.9z"/>
									</g>
								</g>
							</g>
							<g>
								<g>
									<g>
										<path class="st17" d="M62.5,335.1c0,0.1-0.4-0.1-0.9,0c-0.5,0-0.8,0.1-0.9,0.1c0-0.1,0.3-0.3,0.9-0.4
											C62.1,334.8,62.5,335,62.5,335.1z"/>
									</g>
								</g>
							</g>
						</g>
						<g>
							<g>
								<g>
									<path class="st17" d="M62.6,333.4c0,0-0.3,0.1-0.8,0c-0.3-0.1-0.5-0.1-0.9-0.3c-0.2-0.1-0.3-0.2-0.5-0.3
										c-0.1-0.1-0.2-0.1-0.2-0.2c-0.1-0.1-0.1-0.3,0-0.4c0.1-0.1,0.2-0.2,0.4-0.2c0.1,0,0.2,0,0.3,0.1c0.2,0.1,0.4,0.1,0.5,0.2
										c0.3,0.2,0.6,0.3,0.7,0.5C62.4,333.1,62.6,333.4,62.6,333.4c-0.1,0.1-0.2-0.2-0.6-0.5c-0.2-0.2-0.4-0.3-0.7-0.4
										c-0.1-0.1-0.3-0.1-0.5-0.2c-0.2-0.1-0.3-0.1-0.4,0c0,0,0,0,0,0.1c0,0,0.1,0.1,0.2,0.1c0.1,0.1,0.3,0.2,0.4,0.3
										c0.3,0.2,0.6,0.3,0.8,0.3C62.3,333.3,62.6,333.3,62.6,333.4z"/>
								</g>
							</g>
						</g>
						<g>
							<g>
								<g>
									<path class="st17" d="M62.4,333.5c0,0-0.2-0.3-0.2-0.8c0-0.3,0-0.6,0.1-0.9c0.1-0.2,0.1-0.3,0.2-0.5
										c0.1-0.2,0.2-0.4,0.5-0.4c0.2,0,0.3,0.1,0.3,0.2c0.1,0.1,0.1,0.2,0.1,0.3c0,0.2,0,0.4,0,0.6c-0.1,0.4-0.2,0.6-0.4,0.8
										c-0.3,0.4-0.7,0.5-0.7,0.5c0,0,0.3-0.2,0.5-0.6c0.1-0.2,0.2-0.5,0.3-0.8c0-0.2,0-0.3,0-0.5c0-0.2-0.1-0.3-0.1-0.3
										c-0.1,0-0.2,0.1-0.3,0.3c-0.1,0.1-0.2,0.3-0.2,0.4c-0.1,0.3-0.2,0.6-0.2,0.8C62.4,333.2,62.5,333.5,62.4,333.5z"/>
								</g>
							</g>
						</g>
					</g>
				</g>
				<g>
					<g>
						<g>
							<g>
								<polygon class="st18" points="49.6,244.9 52.1,335.7 65.1,335.4 68.3,241.8 								"/>
							</g>
						</g>
					</g>
					<g>
						<g>
							<g>
								<path class="st18" d="M76.8,241.6c0,0,9.7,38.8,10,45.5s-2.1,48-2.1,48H71.9l1.1-47.1l-9.7-39.9l2.4-6.2L76.8,241.6z"/>
							</g>
						</g>
					</g>
				</g>
				<g>
					<g>
						<g>
							<g>
								<path class="st19" d="M67.5,191.8c0,0,4.7,23.6,4.8,30.2c0.1,6.6,2.4,19.6,2.4,19.6H54.1l-0.4-35.9L52.2,195l3.1-4.4
									L67.5,191.8z"/>
							</g>
						</g>
						<g>
							<g>
								<g>
									<path class="st20" d="M67.7,192.5c0,0,4.9,1.4,6.2,3.3c1,1.4,2.4,28.5,2.4,28.5l2.1,23.9l-2.1-0.2l-2.9-8.9L67.7,192.5z"/>
								</g>
							</g>
							<g>
								<g>
									<path class="st20" d="M73.9,195.8l13.8,12.7l17-5.5l3.4,7.2L90,218.4c-2.6,1.1-4.2,0.5-6-0.9l-9.5-7.6L73.9,195.8z"/>
								</g>
							</g>
							<g>
								<g>
									<g>
										
											<ellipse transform="matrix(0.8821 -0.4711 0.4711 0.8821 -84.8322 71.9544)" class="st17" cx="101.3" cy="205.4" rx="0.4" ry="0.4"/>
									</g>
									<g>
										<path class="st17" d="M101.3,205.8c0,0-0.1,0-0.1,0c-0.1,0-0.2-0.1-0.2-0.2c0-0.1-0.1-0.2,0-0.3c0-0.1,0.1-0.2,0.2-0.2
											c0.1,0,0.2-0.1,0.3,0c0.1,0,0.2,0.1,0.2,0.2c0,0.1,0.1,0.2,0,0.3c0,0.1-0.1,0.2-0.2,0.2
											C101.4,205.8,101.4,205.8,101.3,205.8z M101.3,205.1c-0.1,0-0.1,0-0.2,0c-0.1,0-0.1,0.1-0.2,0.2c0,0.1,0,0.2,0,0.3
											c0,0.1,0.1,0.1,0.2,0.2c0.1,0,0.2,0,0.3,0c0.1,0,0.1-0.1,0.2-0.2c0-0.1,0-0.2,0-0.3C101.6,205.1,101.4,205.1,101.3,205.1z
											"/>
									</g>
								</g>
								<g>
									<g>
										
											<ellipse transform="matrix(0.8821 -0.4711 0.4711 0.8821 -84.5032 72.5866)" class="st17" cx="102.7" cy="205.1" rx="0.4" ry="0.4"/>
									</g>
									<g>
										<path class="st17" d="M102.7,205.5c0,0-0.1,0-0.1,0c-0.1,0-0.2-0.1-0.2-0.2c-0.1-0.2,0-0.4,0.2-0.5c0.1,0,0.2-0.1,0.3,0
											c0.1,0,0.2,0.1,0.2,0.2c0,0.1,0.1,0.2,0,0.3c0,0.1-0.1,0.2-0.2,0.2C102.9,205.4,102.8,205.5,102.7,205.5z M102.7,204.7
											c-0.1,0-0.1,0-0.2,0c-0.2,0.1-0.2,0.3-0.1,0.5c0,0.1,0.1,0.1,0.2,0.2c0.1,0,0.2,0,0.3,0c0.2-0.1,0.2-0.3,0.1-0.5
											c0-0.1-0.1-0.1-0.2-0.2C102.8,204.7,102.8,204.7,102.7,204.7z"/>
									</g>
								</g>
								<g>
									<g>
										
											<ellipse transform="matrix(0.882 -0.4712 0.4712 0.882 -84.2176 73.2006)" class="st17" cx="104.1" cy="204.8" rx="0.4" ry="0.4"/>
									</g>
									<g>
										<path class="st17" d="M104.1,205.2c0,0-0.1,0-0.1,0c-0.1,0-0.2-0.1-0.2-0.2c0-0.1-0.1-0.2,0-0.3c0-0.1,0.1-0.2,0.2-0.2
											c0.2-0.1,0.4,0,0.5,0.2l0,0c0.1,0.2,0,0.4-0.2,0.5C104.2,205.2,104.2,205.2,104.1,205.2z M104.1,204.4c-0.1,0-0.1,0-0.2,0
											c-0.1,0-0.1,0.1-0.2,0.2c0,0.1,0,0.2,0,0.3c0,0.1,0.1,0.1,0.2,0.2c0.1,0,0.2,0,0.3,0c0.2-0.1,0.2-0.3,0.1-0.5l0,0
											C104.3,204.5,104.2,204.4,104.1,204.4z"/>
									</g>
								</g>
							</g>
							<g>
								<g>
									<polygon class="st8" points="105,203.3 106.3,202.8 109.3,209.2 108,209.8 									"/>
								</g>
							</g>
							<g>
								<g>
									<g>
										<path class="st17" d="M74.4,200.8c0,0,0,0.3,0.1,0.7c0.1,0.5,0.1,1.2,0.2,1.9c0.2,1.7,0.4,3.9,0.7,6.4
											c0.3,2.5,0.5,4.8,0.6,6.4c0.1,0.8,0.1,1.5,0.1,2c0,0.5,0,0.7,0,0.7c0,0,0-0.3-0.1-0.7c0-0.5-0.1-1.1-0.2-1.9
											c-0.1-1.6-0.4-3.9-0.7-6.4c-0.3-2.5-0.5-4.8-0.7-6.4c-0.1-0.8-0.1-1.5-0.1-2C74.3,201,74.3,200.8,74.4,200.8z"/>
									</g>
								</g>
							</g>
							<g>
								<g>
									<g>
										
											<ellipse transform="matrix(0.2789 -0.9603 0.9603 0.2789 -144.0329 222.8916)" class="st17" cx="76.4" cy="207.4" rx="3.5" ry="0.1"/>
									</g>
								</g>
							</g>
							<g>
								<g>
									<g>
										<path class="st17" d="M87.6,212.8c0,0-0.2-0.2-0.3-0.6c-0.1-0.4-0.2-1-0.2-1.6c0-0.6,0.2-1.2,0.4-1.6
											c0.2-0.4,0.4-0.6,0.4-0.6c0.1,0-0.5,0.9-0.6,2.2C87.3,211.8,87.7,212.7,87.6,212.8z"/>
									</g>
								</g>
							</g>
						</g>
						<g>
							<g>
								<g>
									<polygon class="st8" points="86,227.5 87.8,227.6 87.1,235 85.4,234.8 									"/>
								</g>
							</g>
							<g>
								<g>
									<g>
										<path class="st20" d="M55.3,191.1l-9.6,6.1c-2.2,1.6-3.2,4.4-2.3,7l7.3,23l-2.6,20.9l20.9-0.9l-0.5-9.2l-1.8-16.4
											c-0.3-3-1.1-6-2.2-8.9L55.3,191.1z"/>
									</g>
								</g>
								<g>
									<g>
										<path class="st20" d="M45.3,205.5l9.6,20c0.8,1.6,2.2,2.8,4,3.2l26.5,6.3l0.7-7.7l-20.2-7.6l-10.2-19.5
											c-1.5-3-5.3-4-8.2-2.3l0,0C44.8,199.4,43.9,202.8,45.3,205.5z"/>
									</g>
								</g>
								<g>
									<g>
										<g>
											<path class="st17" d="M86,227.3c0,0,0,0-0.1,0c-0.1,0-0.2-0.1-0.3-0.1c-0.3-0.1-0.7-0.2-1.2-0.4
												c-1.1-0.4-2.6-0.9-4.4-1.6c-3.8-1.4-9-3.4-15-5.6l0,0l0,0c-0.6-1.1-1.2-2.3-1.8-3.5c-1.7-3.2-3.3-6.3-4.9-9
												c-0.8-1.4-1.5-2.7-2.2-3.9c-0.4-0.6-0.7-1.2-1-1.7c-0.2-0.3-0.3-0.6-0.5-0.8c-0.2-0.3-0.4-0.5-0.5-0.7
												c-0.8-0.9-1.7-1.5-2.5-1.8c-0.9-0.3-1.7-0.4-2.4-0.4c-1.3,0-2,0.6-2,0.5c0,0,0,0,0.1-0.1c0.1,0,0.2-0.1,0.4-0.2
												c0.3-0.1,0.8-0.3,1.5-0.3c0.7,0,1.5,0,2.4,0.4c0.9,0.3,1.8,0.9,2.6,1.9c0.2,0.2,0.4,0.5,0.6,0.7c0.2,0.3,0.4,0.5,0.5,0.8
												c0.3,0.6,0.7,1.1,1,1.7c0.7,1.2,1.5,2.5,2.2,3.9c1.6,2.7,3.2,5.8,4.9,9c0.6,1.2,1.2,2.4,1.8,3.5l-0.1-0.1
												c5.9,2.3,11.2,4.2,14.9,5.7c1.9,0.7,3.4,1.3,4.4,1.7c0.5,0.2,0.9,0.4,1.2,0.5c0.1,0.1,0.2,0.1,0.3,0.1
												C86,227.3,86,227.3,86,227.3z"/>
										</g>
									</g>
								</g>
								<g>
									<g>
										<g>
											<circle class="st17" cx="81.2" cy="232.1" r="0.4"/>
										</g>
										<g>
											<path class="st17" d="M81.2,232.5c-0.2,0-0.4-0.2-0.4-0.4c0-0.2,0.2-0.4,0.4-0.4c0.2,0,0.4,0.2,0.4,0.4
												C81.6,232.3,81.4,232.5,81.2,232.5z M81.2,231.8c-0.2,0-0.4,0.2-0.4,0.4c0,0.2,0.2,0.4,0.4,0.4c0.2,0,0.4-0.2,0.4-0.4
												C81.5,231.9,81.4,231.8,81.2,231.8z"/>
										</g>
									</g>
									<g>
										<g>
											<circle class="st17" cx="82.6" cy="232.5" r="0.4"/>
										</g>
										<g>
											<path class="st17" d="M82.6,232.9c-0.2,0-0.4-0.2-0.4-0.4c0-0.2,0.2-0.4,0.4-0.4s0.4,0.2,0.4,0.4
												C83,232.7,82.8,232.9,82.6,232.9z M82.6,232.1c-0.2,0-0.4,0.2-0.4,0.4c0,0.2,0.2,0.4,0.4,0.4c0.2,0,0.4-0.2,0.4-0.4
												C82.9,232.3,82.8,232.1,82.6,232.1z"/>
										</g>
									</g>
									<g>
										<g>
											<circle class="st17" cx="83.9" cy="232.9" r="0.4"/>
										</g>
										<g>
											<path class="st17" d="M83.9,233.3c-0.2,0-0.4-0.2-0.4-0.4c0-0.2,0.2-0.4,0.4-0.4c0.2,0,0.4,0.2,0.4,0.4
												C84.3,233.1,84.1,233.3,83.9,233.3z M83.9,232.5c-0.2,0-0.4,0.2-0.4,0.4c0,0.2,0.2,0.4,0.4,0.4c0.2,0,0.4-0.2,0.4-0.4
												C84.3,232.7,84.1,232.5,83.9,232.5z"/>
										</g>
									</g>
								</g>
								<g>
									<g>
										<g>
											<path class="st17" d="M85.4,235c0,0,0,0-0.1,0c-0.1,0-0.2,0-0.4-0.1c-0.3-0.1-0.8-0.2-1.4-0.3c-1.3-0.3-3-0.7-5.2-1.3
												c-4.4-1.1-10.5-2.6-17.3-4.2c-0.8-0.2-1.7-0.4-2.5-0.6c-0.8-0.2-1.6-0.6-2.3-1.1c-0.6-0.6-1-1.3-1.4-2
												c-0.3-0.7-0.7-1.4-1-2.1c-1.3-2.7-2.5-5.2-3.4-7.2c-1-2.1-1.7-3.7-2.3-4.9c-0.3-0.6-0.5-1-0.6-1.3
												c-0.1-0.1-0.1-0.3-0.2-0.3c0-0.1,0-0.1,0-0.1c0,0,0,0,0.1,0.1c0,0.1,0.1,0.2,0.2,0.3c0.2,0.3,0.4,0.8,0.7,1.3
												c0.6,1.2,1.4,2.8,2.4,4.9c1,2.1,2.2,4.5,3.5,7.2c0.3,0.7,0.7,1.4,1,2.1c0.4,0.7,0.7,1.4,1.3,1.9c0.6,0.5,1.4,0.9,2.2,1.1
												c0.8,0.2,1.7,0.4,2.5,0.6c6.8,1.6,12.9,3.1,17.3,4.3c2.2,0.6,4,1,5.2,1.4c0.6,0.2,1.1,0.3,1.4,0.4c0.2,0,0.3,0.1,0.4,0.1
												C85.3,235,85.4,235,85.4,235z"/>
										</g>
									</g>
								</g>
								<g>
									<g>
										<g>
											<path class="st17" d="M64,233.8c0,0-0.1,0.1-0.3,0.3c-0.2,0.2-0.5,0.4-0.9,0.6c-0.8,0.5-1.9,1.2-3.3,1.7
												c-1.4,0.5-2.7,0.5-3.7,0.4c-0.5-0.1-0.8-0.2-1.1-0.3c-0.2-0.1-0.4-0.2-0.4-0.2c0,0,0.5,0.2,1.5,0.3
												c0.9,0.1,2.2,0,3.6-0.4c1.4-0.5,2.5-1.1,3.3-1.6C63.4,234,63.9,233.7,64,233.8z"/>
										</g>
									</g>
								</g>
								<g>
									<g>
										<g>
											<path class="st17" d="M65.1,236.4c0,0,0,0.1,0.1,0.2c0,0.1,0.1,0.3,0.1,0.5c0.1,0.5,0.1,1.1,0,1.9
												c-0.1,0.8-0.5,1.8-1.2,2.6c-0.7,0.9-1.7,1.6-2.9,1.9c-1.2,0.3-2.5,0.3-3.5-0.1c-1-0.4-1.8-1-2.4-1.6
												c-0.5-0.6-0.9-1.2-1-1.7c-0.1-0.2-0.1-0.4-0.2-0.5c0-0.1,0-0.2,0-0.2c0.1,0,0.2,1,1.3,2.2c0.5,0.6,1.3,1.2,2.3,1.5
												c1,0.4,2.2,0.4,3.4,0.1c1.2-0.3,2.2-1,2.8-1.8c0.7-0.8,1-1.7,1.2-2.5C65.4,237.4,65,236.4,65.1,236.4z"/>
										</g>
									</g>
								</g>
							</g>
						</g>
					</g>
					<g>
						<g>
							<g>
								<g>
									<g>
										<g>
											<g>
												<g>
													<g>
														<g>
															<g>
																<g>
																	<g>
																		<g>
																			<g>
																				<g>
																					<g>
																						<g>
																							<g>
																								<path class="st21" d="M56.3,172.9l0.1,17.1c0,2.9,2.4,5.2,5.3,5.1l0,0c2.7-0.1,4.8-2.4,4.8-5.1
																									c0-1.3,0-2.4,0-2.5c0,0,4.3-0.4,4.6-4.7c0.1-2.1,0.1-6.4,0-10.3c-0.1-4.2-3.4-7.6-7.6-7.8l-0.4,0
																									C58.7,164.6,56.2,168.4,56.3,172.9z"/>
																							</g>
																						</g>
																					</g>
																				</g>
																			</g>
																		</g>
																	</g>
																</g>
															</g>
														</g>
													</g>
													<g>
														<g>
															<g>
																<g>
																	<g>
																		<g>
																			<g>
																				<g>
																					<g>
																						<g>
																							<g>
																								<path class="st22" d="M66.6,187.4c0,0-2.7,0.1-5.5-1.9c0,0,1.1,3.2,5.5,3L66.6,187.4z"/>
																							</g>
																						</g>
																					</g>
																				</g>
																			</g>
																		</g>
																	</g>
																</g>
															</g>
														</g>
													</g>
												</g>
											</g>
										</g>
										<g>
											<g>
												<g>
													<g>
														<g>
															<g>
																<g>
																	<g>
																		<g>
																			<g>
																				<g>
																					<g>
																						<g>
																							<g>
																								<g>
																									<g>
																										<g>
																											<path class="st17" d="M70.1,175c0,0.3-0.3,0.6-0.6,0.6c-0.3,0-0.6-0.3-0.6-0.6c0-0.3,0.3-0.6,0.6-0.6
																												C69.9,174.4,70.1,174.6,70.1,175z"/>
																										</g>
																									</g>
																								</g>
																							</g>
																						</g>
																					</g>
																				</g>
																			</g>
																		</g>
																	</g>
																</g>
																<g>
																	<g>
																		<g>
																			<g>
																				<g>
																					<g>
																						<g>
																							<g>
																								<g>
																									<g>
																										<g>
																											<g>
																												<path class="st17" d="M70.2,174.2c-0.1,0.1-0.5-0.3-1.2-0.3c-0.7,0-1.2,0.3-1.2,0.2
																													c0,0,0.1-0.2,0.3-0.3c0.2-0.1,0.6-0.3,1-0.2c0.4,0,0.7,0.2,0.9,0.4C70.2,174.1,70.3,174.2,70.2,174.2z"
																													/>
																											</g>
																										</g>
																									</g>
																								</g>
																							</g>
																						</g>
																					</g>
																				</g>
																			</g>
																		</g>
																	</g>
																</g>
															</g>
															<g>
																<g>
																	<g>
																		<g>
																			<g>
																				<g>
																					<g>
																						<g>
																							<g>
																								<g>
																									<g>
																										<g>
																											<path class="st17" d="M63.7,174.9c0,0.3-0.3,0.6-0.6,0.6c-0.3,0-0.6-0.3-0.6-0.6c0-0.3,0.3-0.6,0.6-0.6
																												C63.4,174.3,63.7,174.6,63.7,174.9z"/>
																										</g>
																									</g>
																								</g>
																							</g>
																						</g>
																					</g>
																				</g>
																			</g>
																		</g>
																	</g>
																</g>
																<g>
																	<g>
																		<g>
																			<g>
																				<g>
																					<g>
																						<g>
																							<g>
																								<g>
																									<g>
																										<g>
																											<g>
																												<path class="st17" d="M63.7,174.1c-0.1,0.1-0.5-0.3-1.2-0.3c-0.7,0-1.2,0.3-1.2,0.2
																													c0,0,0.1-0.2,0.3-0.3c0.2-0.1,0.6-0.3,1-0.2c0.4,0,0.7,0.2,0.9,0.4C63.6,173.9,63.7,174.1,63.7,174.1z"
																													/>
																											</g>
																										</g>
																									</g>
																								</g>
																							</g>
																						</g>
																					</g>
																				</g>
																			</g>
																		</g>
																	</g>
																</g>
															</g>
															<g>
																<g>
																	<g>
																		<g>
																			<g>
																				<g>
																					<g>
																						<g>
																							<g>
																								<g>
																									<g>
																										<g>
																											<path class="st17" d="M65.8,179.3c0,0,0.4-0.1,1.1-0.1c0.2,0,0.3,0,0.4-0.1c0-0.1,0-0.3-0.1-0.5
																												c-0.1-0.4-0.3-0.9-0.4-1.3c-0.6-1.9-1-3.4-0.9-3.4c0.1,0,0.6,1.5,1.2,3.3c0.1,0.5,0.3,0.9,0.4,1.3
																												c0.1,0.2,0.2,0.4,0,0.7c-0.1,0.1-0.2,0.2-0.3,0.2c-0.1,0-0.2,0-0.3,0C66.2,179.3,65.8,179.3,65.8,179.3z
																												"/>
																										</g>
																									</g>
																								</g>
																							</g>
																						</g>
																					</g>
																				</g>
																			</g>
																		</g>
																	</g>
																</g>
															</g>
														</g>
													</g>
												</g>
												<g>
													<g>
														<g>
															<g>
																<g>
																	<g>
																		<g>
																			<g>
																				<g>
																					<g>
																						<g>
																							<path class="st17" d="M63.9,172.7c-0.1,0.2-0.7,0.1-1.5,0.1c-0.8,0-1.4,0.2-1.5,0.1c0-0.1,0.1-0.2,0.3-0.4
																								c0.3-0.2,0.7-0.3,1.1-0.3c0.5,0,0.9,0.1,1.2,0.2C63.8,172.5,64,172.6,63.9,172.7z"/>
																						</g>
																					</g>
																				</g>
																			</g>
																		</g>
																	</g>
																</g>
															</g>
														</g>
													</g>
												</g>
												<g>
													<g>
														<g>
															<g>
																<g>
																	<g>
																		<g>
																			<g>
																				<g>
																					<g>
																						<g>
																							<path class="st17" d="M70.2,172.7c-0.1,0.1-0.6,0-1.1-0.1c-0.5-0.1-1,0-1.1-0.1c0-0.1,0-0.2,0.2-0.4
																								c0.2-0.1,0.5-0.2,0.9-0.2c0.4,0,0.7,0.2,0.9,0.4C70.2,172.4,70.2,172.6,70.2,172.7z"/>
																						</g>
																					</g>
																				</g>
																			</g>
																		</g>
																	</g>
																</g>
															</g>
														</g>
													</g>
												</g>
											</g>
										</g>
										<g>
											<g>
												<g>
													<g>
														<g>
															<g>
																<g>
																	<g>
																		<g>
																			<g>
																				<g>
																					<g>
																						<path class="st21" d="M56.5,176.1c-0.1,0-2.9-1-3,1.9c-0.1,2.9,2.9,2.4,2.9,2.3
																							C56.4,180.3,56.5,176.1,56.5,176.1z"/>
																					</g>
																				</g>
																			</g>
																		</g>
																	</g>
																</g>
															</g>
														</g>
													</g>
												</g>
											</g>
											<g>
												<g>
													<g>
														<g>
															<g>
																<g>
																	<g>
																		<g>
																			<g>
																				<g>
																					<g>
																						<g>
																							<path class="st22" d="M55.6,179.2c0,0-0.1,0-0.1,0.1c-0.1,0-0.2,0.1-0.4,0c-0.3-0.1-0.6-0.6-0.6-1.2
																								c0-0.3,0.1-0.5,0.2-0.7c0.1-0.2,0.2-0.4,0.4-0.4c0.2,0,0.3,0.1,0.3,0.1c0,0.1,0,0.1,0,0.1c0,0,0.1,0,0-0.2
																								c0-0.1,0-0.1-0.1-0.2c-0.1-0.1-0.2-0.1-0.3-0.1c-0.2,0-0.4,0.2-0.5,0.4c-0.1,0.2-0.2,0.5-0.2,0.8
																								c0,0.6,0.3,1.2,0.7,1.3c0.2,0.1,0.4,0,0.5-0.1C55.5,179.3,55.6,179.2,55.6,179.2z"/>
																						</g>
																					</g>
																				</g>
																			</g>
																		</g>
																	</g>
																</g>
															</g>
														</g>
													</g>
												</g>
											</g>
										</g>
									</g>
								</g>
								<g>
									<g>
										<g>
											<g>
												<g>
													<g>
														<g>
															<path class="st17" d="M54.9,175.9c0.5-0.1,1.2,0.4,1.4,0.8c0.2,0.4,0.2,0.9,0.3,1.3c0.2,0.4,0.6,0.8,1,0.8
																c0.3-0.1,0.6-0.3,0.7-0.6c0.1-0.3,0.1-0.6,0.1-0.9c-0.1-1.4-0.3-2.8-0.3-4.1c0-1.4,0.3-2.8,1.1-4
																c0.8-1.1,2.2-1.9,3.6-1.7c0.9,0.1,1.7,0.7,2.6,0.8c1.1,0.2,2.2-0.1,3-0.8c0,0,0.1-0.1,0.1-0.1
																c0.3-0.2,0.4-0.6,0.3-0.9c0-0.1-0.1-0.2-0.2-0.3c-1.7-1.8-4.9-2.4-7.3-2c-2.4,0.5-4.7,2-5.9,4.2
																C54.3,170.5,54.4,173.6,54.9,175.9"/>
														</g>
													</g>
												</g>
											</g>
										</g>
									</g>
								</g>
							</g>
						</g>
						<g>
							<g>
								<g>
									<g>
										<g>
											<g>
												<g>
													<g>
														<path class="st17" d="M64.2,179.8c0.1,0,0.1,0.7,0.7,1.2c0.6,0.5,1.4,0.4,1.4,0.5c0,0-0.2,0.1-0.5,0.1
															c-0.3,0-0.8-0.1-1.2-0.4c-0.4-0.3-0.5-0.7-0.6-1C64.1,180,64.1,179.8,64.2,179.8z"/>
													</g>
												</g>
											</g>
										</g>
									</g>
								</g>
							</g>
						</g>
					</g>
					<g>
						<g>
							<g>
								<g>
									<g>
										<path class="st21" d="M105.3,204c0,0,3.2-2.8,3.8-3c0.6-0.2,5.5-0.3,5.8-0.1c0.3,0.2,5.2,2.9,4.4,3.4
											c-0.8,0.4-4.2-1.5-4.2-1.5l-0.6,0.1c0,0,3,1.6,3.5,2.2c0.5,0.6,0,1.2-0.5,1c-0.6-0.3-3.1-1.7-3.3-1.7
											c-0.2,0.1,2.7,1.8,3,2.1c0.4,0.4,0.1,1.2-0.4,1c-0.3-0.1-3-1.9-3-1.9s2,1.7,2.2,2c0.2,0.5-0.2,0.9-0.7,0.6
											c-0.3-0.2-1.7-1.6-2.1-1.8c0,0-0.5,0-1.2,0.7c-0.7,0.7-3.5,1.8-3.5,1.8L105.3,204z"/>
									</g>
								</g>
							</g>
							<g>
								<g>
									<g>
										<g>
											<path class="st22" d="M119.4,204.3c0,0-0.4,0.1-1-0.1c-0.3-0.1-0.7-0.2-1.1-0.3c-0.4-0.2-0.8-0.4-1.2-0.6
												c-0.3-0.2-0.6-0.3-0.9-0.5l0.1,0c-1.4,0-2.5,0-2.5-0.1c0-0.1,1-0.1,2.5-0.2l0,0l0,0c0.3,0.1,0.6,0.3,0.9,0.5
												c0.4,0.2,0.8,0.4,1.2,0.6c0.4,0.2,0.7,0.3,1,0.4C119,204.2,119.4,204.3,119.4,204.3z"/>
										</g>
									</g>
								</g>
							</g>
						</g>
						<g>
							<g>
								<g>
									<g>
										<path class="st21" d="M106.5,204.9c0.2,0.4,0.8,0.5,1.2,0.4c0.4-0.1,0.9-0.3,1.3-0.5c1.3-0.4,2.8,0.3,4.1-0.1
											c0.2-0.1,0.4-0.2,0.4-0.4c0-0.2-0.2-0.3-0.4-0.3c-1.4-0.5-2.9-0.9-4.3-1.4"/>
									</g>
								</g>
							</g>
							<g>
								<g>
									<g>
										<g>
											<path class="st22" d="M108.8,202.6c0,0,0.2,0,0.5,0.1c0.3,0.1,0.7,0.2,1.3,0.4c0.6,0.2,1.2,0.4,1.9,0.6
												c0.2,0.1,0.4,0.1,0.6,0.2c0.2,0.1,0.4,0.1,0.6,0.3c0.1,0.1,0,0.3-0.1,0.4c-0.1,0.1-0.2,0.2-0.3,0.2
												c-0.2,0.1-0.4,0.1-0.7,0.1c-0.9,0.1-1.7-0.1-2.5-0.1c-0.4,0-0.7,0-1,0.1c-0.3,0.1-0.6,0.2-0.9,0.3
												c-0.5,0.2-1.1,0.2-1.4,0c-0.3-0.2-0.3-0.4-0.3-0.4c0,0,0.1,0.2,0.4,0.3c0.3,0.1,0.7,0.1,1.2-0.1c0.3-0.1,0.5-0.3,0.9-0.4
												c0.3-0.1,0.7-0.1,1.1-0.1c0.8,0,1.6,0.2,2.4,0.1c0.2,0,0.4-0.1,0.6-0.1c0.2-0.1,0.3-0.2,0.2-0.3c0-0.1-0.2-0.2-0.4-0.2
												c-0.2-0.1-0.4-0.1-0.5-0.2c-0.7-0.2-1.3-0.4-1.9-0.6c-0.5-0.2-1-0.3-1.3-0.4C108.9,202.7,108.8,202.6,108.8,202.6z"/>
										</g>
									</g>
								</g>
							</g>
						</g>
					</g>
					<g>
						<g>
							<path class="st21" d="M87,227.7l5.4-0.5c0,0,7.1,4.8,6.4,5.9c-0.7,1.1-1.8,0-1.8,0s1.3,1.6-0.8,2c0,0-0.5,1.1-1.3,1l-0.5,0
								c0,0-0.4,1.4-1.1,1.1c-0.7-0.3-2.6-2-2.6-2l-5.5-0.5L87,227.7z"/>
						</g>
					</g>
					<g>
						<g>
							<path class="st23" d="M90.3,233.2c0,0-1.4,0.5-1.7,1.1c-0.3,0.6-0.5,1.8,0.4,2.1c0.3,0.1,1.6,0,1.6,0l-0.3-1.4
								c0,0,0.5-0.6,0.8-0.8C91.4,233.8,91.1,232.8,90.3,233.2z"/>
						</g>
					</g>
					<g>
						<g>
							<path class="st23" d="M91.9,233.9c0,0-1.4,0.5-1.7,1.1c-0.3,0.6-0.1,1.5,0.8,1.7c0.3,0.1,1.4,0,1.4,0l-0.1-0.3
								c-0.3-0.5-0.4-1,0.1-1.3c0,0,0.3-0.3,0.3-0.3C93,234.5,92.7,233.6,91.9,233.9z"/>
						</g>
					</g>
					<g>
						<g>
							<path class="st23" d="M92.2,236.6c-0.3-0.2-0.3-0.6-0.1-0.9c0.2-0.3,0.5-0.5,0.8-0.6c0.2-0.1,0.5-0.1,0.6,0.1
								c0.1,0.1,0.1,0.3,0.1,0.4c-0.1,0.4-0.3,0.7-0.5,1c-0.1,0.2-0.3,0.3-0.5,0.3C92.4,236.9,92.2,236.7,92.2,236.6"/>
						</g>
					</g>
					<g>
						<g>
							<g>
								<g>
									<polygon class="st24" points="63.3,193.5 64.5,193 65.5,194.9 64.9,196.9 63.7,197.2 62.5,195.6 									"/>
								</g>
							</g>
							<g>
								<g>
									<path class="st24" d="M63.7,197.2c0,0,1.6,8.6,2.9,14.6c0,0,1.1,5,1.5,6.2c0.5,1.3,2,3.2,2,3.2l1.5,0.6l-0.9-8.5l-5.7-16.4
										L63.7,197.2z"/>
								</g>
							</g>
							<g>
								<g>
									<polygon class="st25" points="63.3,193.5 64.5,193 65.5,194.9 64.9,196.9 63.7,197.2 62.5,195.6 									"/>
								</g>
							</g>
							<g>
								<g>
									<path class="st25" d="M63.7,197.2c0,0,1.6,8.6,2.9,14.6c0,0,1.2,5,1.5,6.2c0.2,0.7,2,3.2,2,3.2l1.5,0.6l-0.9-8.5l-5.7-16.4
										L63.7,197.2z"/>
								</g>
							</g>
						</g>
						<g>
							<g>
								<g>
									<polygon class="st19" points="56.1,188.2 63.3,193.5 61.7,197.7 55.1,191 									"/>
								</g>
							</g>
							<g>
								<g>
									<polygon class="st19" points="64.5,193 66.5,188.5 67.6,192.2 66.1,196.1 									"/>
								</g>
							</g>
							<g>
								<g>
									<g>
										<path class="st17" d="M63.3,193.5c0,0,0,0.1-0.1,0.3c-0.1,0.2-0.2,0.5-0.3,0.9c-0.3,0.8-0.6,1.8-1.1,3.1l-0.1,0.2
											l-0.1-0.1c-0.5-0.6-1.1-1.2-1.7-1.9c-1.3-1.5-2.5-2.8-3.3-3.7c-0.4-0.5-0.7-0.8-1-1.2c-0.2-0.3-0.4-0.4-0.3-0.4
											c0,0,0.2,0.1,0.4,0.4c0.3,0.3,0.6,0.7,1,1.1c0.9,0.9,2.1,2.2,3.4,3.7c0.6,0.7,1.2,1.3,1.7,1.9l-0.2,0
											c0.5-1.3,0.9-2.3,1.2-3.1c0.1-0.3,0.3-0.6,0.4-0.9C63.2,193.6,63.3,193.4,63.3,193.5z"/>
									</g>
								</g>
							</g>
							<g>
								<g>
									<g>
										<path class="st17" d="M67.6,192.2c0,0-0.1,0.4-0.3,1.1c-0.2,0.6-0.6,1.5-1,2.5c-0.1,0.1-0.1,0.3-0.2,0.4l-0.1,0.3
											l-0.1-0.3c-0.6-1.8-1.5-2.9-1.4-3c0,0,0.3,0.3,0.6,0.8c0.3,0.5,0.7,1.2,1.1,2.1l-0.2,0c0.1-0.1,0.1-0.3,0.2-0.4
											c0.4-1,0.8-1.8,1-2.5C67.4,192.6,67.6,192.2,67.6,192.2z"/>
									</g>
								</g>
							</g>
						</g>
					</g>
				</g>
			</g>
			<g>
				<g>
					<g>
						<g>
							<g>
								<path class="st15" d="M124.9,329.9l0.6,8.5c0,0-8.5,3.5-8.5,5l16.6-0.6l-0.4-13.3L124.9,329.9z"/>
							</g>
						</g>
						<g>
							<g>
								<path class="st15" d="M133.6,342.9l-0.1-1.3l-15.8,1c0,0-0.7,0.3-0.6,0.9L133.6,342.9z"/>
							</g>
						</g>
						<g>
							<g>
								<g>
									<path class="st16" d="M125.3,338.3c0,0.1,0.4,0.1,0.8,0.4c0.4,0.2,0.6,0.6,0.7,0.5c0.1,0-0.1-0.5-0.6-0.8
										C125.7,338.1,125.2,338.2,125.3,338.3z"/>
								</g>
							</g>
						</g>
						<g>
							<g>
								<g>
									<path class="st16" d="M123.6,339.1c0,0.1,0.3,0.2,0.6,0.5c0.3,0.3,0.4,0.7,0.5,0.7c0.1,0,0.1-0.5-0.2-0.9
										C124,339,123.5,339,123.6,339.1z"/>
								</g>
							</g>
						</g>
						<g>
							<g>
								<g>
									<path class="st16" d="M122.6,341.2c0.1,0,0.2-0.4,0-0.8c-0.2-0.4-0.6-0.6-0.6-0.5c0,0.1,0.2,0.3,0.4,0.7
										C122.5,340.9,122.6,341.2,122.6,341.2z"/>
								</g>
							</g>
						</g>
						<g>
							<g>
								<g>
									<path class="st16" d="M125.3,336.4c0,0.1,0.4-0.1,0.9,0c0.5,0,0.8,0.1,0.9,0.1c0-0.1-0.3-0.3-0.9-0.4
										C125.7,336,125.3,336.3,125.3,336.4z"/>
								</g>
							</g>
						</g>
					</g>
					<g>
						<g>
							<g>
								<path class="st17" d="M125.3,334.6c0,0,0.3,0.1,0.8,0c0.3-0.1,0.5-0.1,0.9-0.3c0.2-0.1,0.3-0.2,0.5-0.3
									c0.1-0.1,0.2-0.1,0.2-0.2c0.1-0.1,0.1-0.3,0-0.4c-0.1-0.1-0.2-0.2-0.4-0.2c-0.1,0-0.2,0-0.3,0.1c-0.2,0.1-0.4,0.1-0.5,0.2
									c-0.3,0.2-0.6,0.3-0.7,0.5C125.4,334.4,125.3,334.7,125.3,334.6c0.1,0.1,0.2-0.2,0.6-0.5c0.2-0.2,0.4-0.3,0.7-0.4
									c0.1-0.1,0.3-0.1,0.5-0.2c0.2-0.1,0.3-0.1,0.4,0c0,0,0,0,0,0.1c0,0-0.1,0.1-0.2,0.1c-0.1,0.1-0.3,0.2-0.4,0.3
									c-0.3,0.2-0.6,0.3-0.8,0.3C125.6,334.6,125.3,334.6,125.3,334.6z"/>
							</g>
						</g>
					</g>
					<g>
						<g>
							<g>
								<path class="st17" d="M125.4,334.7c0,0,0.2-0.3,0.2-0.8c0-0.3,0-0.6-0.1-0.9c-0.1-0.2-0.1-0.3-0.2-0.5
									c-0.1-0.2-0.2-0.4-0.5-0.4c-0.2,0-0.3,0.1-0.3,0.2c-0.1,0.1-0.1,0.2-0.1,0.3c0,0.2,0,0.4,0,0.6c0.1,0.4,0.2,0.6,0.4,0.8
									c0.3,0.4,0.7,0.5,0.7,0.5c0,0-0.3-0.2-0.5-0.6c-0.1-0.2-0.2-0.5-0.3-0.8c0-0.2,0-0.3,0-0.5c0-0.2,0.1-0.3,0.1-0.3
									c0.1,0,0.2,0.1,0.3,0.3c0.1,0.1,0.2,0.3,0.2,0.4c0.1,0.3,0.2,0.6,0.2,0.8C125.4,334.4,125.3,334.7,125.4,334.7z"/>
							</g>
						</g>
					</g>
				</g>
			</g>
			<g>
				<g>
					<g>
						<g>
							<g>
								<path class="st15" d="M153.1,329.9l0.6,8.5c0,0-8.5,3.5-8.5,5l16.6-0.6l-0.4-13.3L153.1,329.9z"/>
							</g>
						</g>
						<g>
							<g>
								<path class="st15" d="M161.7,342.9l-0.1-1.3l-15.8,1c0,0-0.7,0.3-0.6,0.9L161.7,342.9z"/>
							</g>
						</g>
						<g>
							<g>
								<g>
									<path class="st16" d="M153.4,338.3c0,0.1,0.4,0.1,0.8,0.4c0.4,0.2,0.6,0.6,0.7,0.5c0.1,0-0.1-0.5-0.6-0.8
										C153.9,338.1,153.4,338.2,153.4,338.3z"/>
								</g>
							</g>
						</g>
						<g>
							<g>
								<g>
									<path class="st16" d="M151.7,339.1c0,0.1,0.3,0.2,0.6,0.5c0.3,0.3,0.4,0.7,0.5,0.7c0.1,0,0.1-0.5-0.2-0.9
										C152.1,339,151.7,339,151.7,339.1z"/>
								</g>
							</g>
						</g>
						<g>
							<g>
								<g>
									<path class="st16" d="M150.8,341.2c0.1,0,0.2-0.4,0-0.8c-0.2-0.4-0.6-0.6-0.6-0.5c0,0.1,0.2,0.3,0.4,0.7
										C150.6,340.9,150.7,341.2,150.8,341.2z"/>
								</g>
							</g>
						</g>
						<g>
							<g>
								<g>
									<path class="st17" d="M153.5,336.4c0,0.1,0.4-0.1,0.9,0c0.5,0,0.8,0.1,0.9,0.1c0-0.1-0.3-0.3-0.9-0.4
										C153.8,336,153.4,336.3,153.5,336.4z"/>
								</g>
							</g>
						</g>
					</g>
					<g>
						<g>
							<g>
								<path class="st17" d="M153.4,334.6c0,0,0.3,0.1,0.8,0c0.3-0.1,0.5-0.1,0.9-0.3c0.2-0.1,0.3-0.2,0.5-0.3
									c0.1-0.1,0.2-0.1,0.2-0.2c0.1-0.1,0.1-0.3,0-0.4c-0.1-0.1-0.2-0.2-0.4-0.2c-0.1,0-0.2,0-0.3,0.1c-0.2,0.1-0.4,0.1-0.5,0.2
									c-0.3,0.2-0.6,0.3-0.7,0.5C153.5,334.4,153.4,334.7,153.4,334.6c0.1,0.1,0.2-0.2,0.6-0.5c0.2-0.2,0.4-0.3,0.7-0.4
									c0.1-0.1,0.3-0.1,0.5-0.2c0.2-0.1,0.3-0.1,0.4,0c0,0,0,0,0,0.1c0,0-0.1,0.1-0.2,0.1c-0.1,0.1-0.3,0.2-0.4,0.3
									c-0.3,0.2-0.6,0.3-0.8,0.3C153.7,334.6,153.4,334.6,153.4,334.6z"/>
							</g>
						</g>
					</g>
					<g>
						<g>
							<g>
								<path class="st17" d="M153.5,334.7c0,0,0.2-0.3,0.2-0.8c0-0.3,0-0.6-0.1-0.9c-0.1-0.2-0.1-0.3-0.2-0.5
									c-0.1-0.2-0.2-0.4-0.5-0.4c-0.2,0-0.3,0.1-0.3,0.2c-0.1,0.1-0.1,0.2-0.1,0.3c0,0.2,0,0.4,0,0.6c0.1,0.4,0.2,0.6,0.4,0.8
									c0.3,0.4,0.7,0.5,0.7,0.5c0,0-0.3-0.2-0.5-0.6c-0.1-0.2-0.2-0.5-0.3-0.8c0-0.2,0-0.3,0-0.5c0-0.2,0.1-0.3,0.1-0.3
									c0.1,0,0.2,0.1,0.3,0.3c0.1,0.1,0.2,0.3,0.2,0.4c0.1,0.3,0.2,0.6,0.2,0.8C153.5,334.4,153.4,334.7,153.5,334.7z"/>
							</g>
						</g>
					</g>
				</g>
			</g>
			<g>
				<g>
					<g>
						<g>
							<g>
								<g>
									<g>
										<g>
											<g>
												<polygon class="st25" points="120.4,237.2 123.1,336.3 136.2,335.9 135.2,250.8 151.8,338.3 163.6,335.2 148.4,237.4 
																									"/>
											</g>
										</g>
									</g>
								</g>
							</g>
						</g>
					</g>
				</g>
				<g>
					<g>
						<g>
							<path class="st26" d="M127.6,336.5c-0.1,0-0.1-20.6-0.1-45.9c0-25.4,0.1-45.9,0.1-45.9s0.1,20.6,0.1,45.9
								C127.7,315.9,127.7,336.5,127.6,336.5z"/>
						</g>
					</g>
				</g>
				<g>
					<g>
						<g>
							<path class="st26" d="M155.5,338.3c-0.1,0-3.1-19.7-6.8-44c-3.7-24.3-6.6-44-6.6-44.1c0.1,0,3.1,19.7,6.8,44
								C152.6,318.5,155.6,338.3,155.5,338.3z"/>
						</g>
					</g>
				</g>
			</g>
			<g>
				<g>
					<g>
						<path class="st17" d="M139.1,175.2c0.4-1.1,0.9-2,1.1-3.2c0.2-0.8,0.4-2.1,0.1-2.8c-0.3-0.8-1.1-1.5-2.1-1.3
							c-0.3-1.6-1.1-3-2.8-3.7c-1.5-0.7-2.9-1.1-4.6-1.2c-0.5,0-1.3,0-1.7,0.2c-0.4,0.2-0.9,0.7-1,1.1c-0.9-0.7-2.1-0.9-3.4-0.5
							c-1.3,0.3-2.7,1-3.3,2.2c-0.3,0.7-0.5,1.6-0.1,2.8c0.2,0.8,1.1,2,1.8,1.7"/>
					</g>
				</g>
				<g>
					<g>
						<g>
							<g>
								<g>
									<g>
										<g>
											<g>
												<g>
													<g>
														<g>
															<g>
																<g>
																	<g>
																		<path class="st23" d="M132.8,196.5L132.8,196.5c-3.2-0.1-5.7-2.8-5.5-5.9c0.1-1.6,0.2-2.9,0.2-2.9
																			s-4.3-0.6-4.5-4.9c-0.2-4.3,0.3-14.2,0.3-14.2l0,0c4.9-2.3,10.7-1.7,15,1.5l0.6,0.5l-0.4,20.3
																			C138.5,194.1,135.9,196.6,132.8,196.5z"/>
																	</g>
																</g>
															</g>
														</g>
													</g>
												</g>
											</g>
											<g>
												<g>
													<g>
														<g>
															<g>
																<g>
																	<g>
																		<path class="st27" d="M127.4,187.7c0,0,2.7,0.2,5.6-1.7c0,0-1.3,3.3-5.6,3.1L127.4,187.7z"/>
																	</g>
																</g>
															</g>
														</g>
													</g>
												</g>
											</g>
										</g>
									</g>
								</g>
								<g>
									<g>
										<g>
											<g>
												<g>
													<g>
														<g>
															<g>
																<path class="st23" d="M138.5,175.2c0.1,0,2.9-0.9,2.9,2c0,2.9-3,2.3-3,2.2C138.5,179.3,138.5,175.2,138.5,175.2z"/>
															</g>
														</g>
													</g>
												</g>
											</g>
										</g>
									</g>
									<g>
										<g>
											<g>
												<g>
													<g>
														<g>
															<g>
																<g>
																	<path class="st27" d="M139.4,178.3c0,0,0.1,0,0.1,0.1c0.1,0,0.2,0.1,0.4,0c0.3-0.1,0.6-0.6,0.6-1.1
																		c0-0.3,0-0.5-0.1-0.7c-0.1-0.2-0.2-0.4-0.4-0.4c-0.2,0-0.3,0.1-0.3,0.1c0,0.1,0,0.1,0,0.1c0,0-0.1,0,0-0.2
																		c0-0.1,0-0.1,0.1-0.2c0.1-0.1,0.2-0.1,0.3-0.1c0.2,0,0.4,0.2,0.5,0.5c0.1,0.2,0.2,0.5,0.2,0.8
																		c0,0.6-0.3,1.1-0.8,1.3c-0.2,0.1-0.4,0-0.5-0.1C139.4,178.4,139.4,178.3,139.4,178.3z"/>
																</g>
															</g>
														</g>
													</g>
												</g>
											</g>
										</g>
									</g>
								</g>
								<g>
									<g>
										<g>
											<g>
												<g>
													<g>
														<g>
															<g>
																<g>
																	<g>
																		<g>
																			<g>
																				<g>
																					<path class="st17" d="M124.4,175.4c0,0.3,0.3,0.6,0.6,0.6c0.3,0,0.6-0.2,0.6-0.6c0-0.3-0.3-0.6-0.6-0.6
																						C124.7,174.9,124.4,175.1,124.4,175.4z"/>
																				</g>
																			</g>
																		</g>
																	</g>
																</g>
															</g>
														</g>
														<g>
															<g>
																<g>
																	<g>
																		<g>
																			<g>
																				<g>
																					<g>
																						<path class="st17" d="M124.2,174.7c0.1,0.1,0.5-0.3,1.2-0.3c0.7,0,1.2,0.3,1.2,0.2c0,0,0-0.2-0.3-0.3
																							c-0.2-0.1-0.6-0.3-1-0.3c-0.4,0-0.8,0.2-0.9,0.3C124.3,174.6,124.2,174.7,124.2,174.7z"/>
																					</g>
																				</g>
																			</g>
																		</g>
																	</g>
																</g>
															</g>
														</g>
													</g>
													<g>
														<g>
															<g>
																<g>
																	<g>
																		<g>
																			<g>
																				<g>
																					<path class="st17" d="M130.8,175.4c0,0.3,0.3,0.6,0.6,0.6c0.3,0,0.6-0.2,0.6-0.6c0-0.3-0.3-0.6-0.6-0.6
																						C131.1,174.8,130.8,175.1,130.8,175.4z"/>
																				</g>
																			</g>
																		</g>
																	</g>
																</g>
															</g>
														</g>
														<g>
															<g>
																<g>
																	<g>
																		<g>
																			<g>
																				<g>
																					<g>
																						<path class="st17" d="M130.7,174.7c0.1,0.1,0.5-0.3,1.2-0.3c0.7,0,1.2,0.3,1.2,0.2c0,0,0-0.2-0.3-0.3
																							c-0.2-0.1-0.6-0.3-1-0.3c-0.4,0-0.8,0.2-0.9,0.3C130.7,174.5,130.7,174.7,130.7,174.7z"/>
																					</g>
																				</g>
																			</g>
																		</g>
																	</g>
																</g>
															</g>
														</g>
													</g>
													<g>
														<g>
															<g>
																<g>
																	<g>
																		<g>
																			<g>
																				<g>
																					<path class="st17" d="M128.4,179.7c0,0-0.4-0.1-1.1-0.2c-0.2,0-0.3,0-0.4-0.2c0-0.1,0-0.3,0.1-0.5
																						c0.1-0.4,0.3-0.8,0.5-1.3c0.6-1.8,1.1-3.4,1-3.4c-0.1,0-0.7,1.4-1.3,3.3c-0.2,0.5-0.3,0.9-0.4,1.3
																						c-0.1,0.2-0.2,0.4-0.1,0.7c0,0.1,0.2,0.2,0.3,0.2c0.1,0,0.2,0,0.3,0C128,179.7,128.4,179.7,128.4,179.7z"/>
																				</g>
																			</g>
																		</g>
																	</g>
																</g>
															</g>
														</g>
													</g>
													<g>
														<g>
															<g>
																<g>
																	<g>
																		<g>
																			<g>
																				<g>
																					<path class="st17" d="M130.4,180.1c-0.1,0-0.1,0.7-0.7,1.2c-0.6,0.5-1.4,0.5-1.4,0.6c0,0,0.2,0.1,0.5,0.1
																						c0.3,0,0.8-0.1,1.1-0.4c0.4-0.3,0.5-0.7,0.5-1C130.5,180.2,130.4,180.1,130.4,180.1z"/>
																				</g>
																			</g>
																		</g>
																	</g>
																</g>
															</g>
														</g>
													</g>
												</g>
											</g>
										</g>
										<g>
											<g>
												<g>
													<g>
														<g>
															<g>
																<g>
																	<path class="st17" d="M130.5,172.1c0.1,0.2,0.7,0.1,1.5,0.2c0.8,0.1,1.4,0.3,1.5,0.1c0-0.1-0.1-0.2-0.3-0.4
																		c-0.3-0.2-0.7-0.3-1.1-0.4c-0.5,0-0.9,0-1.2,0.2C130.6,171.9,130.4,172,130.5,172.1z"/>
																</g>
															</g>
														</g>
													</g>
												</g>
											</g>
										</g>
										<g>
											<g>
												<g>
													<g>
														<g>
															<g>
																<g>
																	<path class="st17" d="M124.4,172.8c0.1,0.1,0.6,0,1.1,0c0.5,0,1,0.1,1.1-0.1c0-0.1,0-0.2-0.2-0.4
																		c-0.2-0.1-0.5-0.2-0.9-0.2c-0.4,0-0.7,0.2-0.9,0.3C124.4,172.6,124.4,172.8,124.4,172.8z"/>
																</g>
															</g>
														</g>
													</g>
												</g>
											</g>
										</g>
									</g>
								</g>
							</g>
						</g>
						<g>
							<g>
								<g>
									<g>
										<path class="st17" d="M139.2,171c0,1.3,0.3,2.6,0.1,3.9c0,0.2-0.5,0.7-0.5,0.9c-0.2,1.1-0.7,1.6-1.3,0.5
											c-0.3-0.4-0.5-1.6-0.6-2.1c-0.3-1.3-0.6-2.6-0.9-3.9c-1,0.5-2.1,0.9-3.2,0.9c-1.1,0-2.3-0.6-2.8-1.6
											c-0.5,0.9-1.5,1.6-2.5,1.7c-1,0.2-2.1-0.2-2.9-0.9c-0.4,0.6-1.3,0.8-1.9,0.5c-0.6-0.4-0.9-1.2-0.7-1.9
											c0.3-1.1,1.4-1.7,2.4-2c4.1-1.3,8.6-0.5,12.3,1.6c0.5,0.3,1.1,0.6,1.5,1.1c0.4,0.4,1,1,1.1,1.6"/>
									</g>
								</g>
							</g>
						</g>
					</g>
				</g>
				<g>
					<g>
						<g>
							<path class="st28" d="M136.1,170.7c0,0,0.3-0.1,0.7,0.1c0.2,0.1,0.4,0.2,0.6,0.4c0.2,0.2,0.4,0.4,0.7,0.7
								c0.2,0.2,0.5,0.4,0.8,0.5c0.3,0.1,0.6,0.1,0.8,0c0.5-0.1,0.6-0.4,0.6-0.4c0,0-0.2,0.2-0.7,0.2c-0.2,0-0.5,0-0.7-0.1
								c-0.3-0.1-0.5-0.3-0.7-0.5c-0.2-0.2-0.5-0.5-0.7-0.6c-0.2-0.2-0.5-0.3-0.7-0.4C136.4,170.5,136.1,170.7,136.1,170.7z"/>
						</g>
					</g>
				</g>
				<g>
					<g>
						<g>
							<path class="st28" d="M136.6,172c0,0,0.2,0,0.5,0.2c0.1,0.1,0.2,0.2,0.4,0.4c0.1,0.2,0.3,0.4,0.6,0.5c0.5,0.3,1,0.3,1.3,0.3
								c0.4-0.1,0.5-0.2,0.5-0.2c0,0-0.2,0-0.5,0c-0.3,0-0.8-0.1-1.2-0.3c-0.4-0.2-0.6-0.7-1-0.9C136.8,171.8,136.6,172,136.6,172z"
								/>
						</g>
					</g>
				</g>
				<g>
					<g>
						<g>
							<path class="st28" d="M125.3,163.6c0,0-0.1,0-0.4,0c-0.2,0.1-0.6,0.3-0.8,0.6c-0.5,0.7-0.6,2-0.2,3.3
								c0.4,1.3,1.4,2.2,2.1,2.6c0.4,0.2,0.7,0.3,0.9,0.4c0.2,0.1,0.4,0.1,0.4,0.1c0,0-0.5-0.2-1.2-0.6c-0.7-0.4-1.6-1.3-2-2.5
								c-0.4-1.2-0.3-2.4,0.1-3.1c0.2-0.3,0.5-0.5,0.7-0.6C125.1,163.7,125.3,163.7,125.3,163.6z"/>
						</g>
					</g>
				</g>
				<g>
					<g>
						<g>
							<path class="st28" d="M121.7,165.4c0,0-0.1,0.3,0,0.8c0.1,0.5,0.3,1.2,0.8,1.9c0.4,0.7,1,1.1,1.4,1.4
								c0.4,0.3,0.7,0.4,0.7,0.4c0-0.1-1.1-0.6-2-1.9C121.9,166.7,121.8,165.4,121.7,165.4z"/>
						</g>
					</g>
				</g>
			</g>
			<g>
				<g>
					<path class="st23" d="M98,225.3l-6.3,0.3c-0.8,0-1.4,0.7-1.4,1.5c0,1.4,0.3,3.4,1.4,3.2l0.7-3.1l5.2,4.6
						c0.5,0.5,1.2,0.8,1.9,0.9l1.2-0.1L98,225.3z"/>
				</g>
			</g>
			<g>
				<g>
					<g>
						<polygon class="st8" points="128.1,191.6 124.8,192.7 123.2,220 123.2,244.2 143.3,246.4 143.6,211.5 142.3,194.1 
							139.2,190.5 						"/>
					</g>
				</g>
				<g>
					<g>
						<polygon class="st8" points="127.1,192.9 127.1,190.3 139,188.6 138.6,194.7 135.8,199.5 131.3,199.7 128.1,197.7 						"/>
					</g>
				</g>
				<g>
					<g>
						<g>
							
								<ellipse transform="matrix(4.283140e-02 -0.9991 0.9991 4.283140e-02 -68.5267 311.277)" class="st17" cx="128.2" cy="191.4" rx="1.2" ry="0.1"/>
						</g>
					</g>
				</g>
				<g>
					<g>
						<g>
							
								<ellipse transform="matrix(5.841074e-02 -0.9983 0.9983 5.841074e-02 -67.168 310.8755)" class="st17" cx="131.2" cy="191" rx="1.3" ry="0.1"/>
						</g>
					</g>
				</g>
				<g>
					<g>
						<g>
							
								<ellipse transform="matrix(7.326883e-02 -0.9973 0.9973 7.326883e-02 -65.8427 310.4722)" class="st17" cx="134.1" cy="190.7" rx="1.4" ry="0.1"/>
						</g>
					</g>
				</g>
				<g>
					<g>
						<g>
							<path class="st17" d="M136.8,191.6c-0.1,0-0.1-0.6-0.1-1.4c0-0.7,0.2-1.3,0.2-1.3c0.1,0,0,0.6,0,1.3
								C136.9,191,136.9,191.6,136.8,191.6z"/>
						</g>
					</g>
				</g>
				<g>
					<g>
						<g>
							<path class="st17" d="M135.5,203.2c0,0,0,0.2-0.2,0.4c-0.1,0.3-0.3,0.7-0.5,1.2c-0.5,1-1.2,2.3-2,3.8
								c-0.9,1.4-1.7,2.7-2.3,3.6c-0.3,0.4-0.6,0.8-0.8,1c-0.2,0.2-0.3,0.4-0.3,0.4c0,0,0.4-0.6,1-1.5c0.6-0.9,1.4-2.2,2.3-3.6
								c0.8-1.4,1.6-2.7,2.1-3.7C135.2,203.7,135.5,203.1,135.5,203.2z"/>
						</g>
					</g>
				</g>
			</g>
			<g>
				<g>
					<g>
						<path class="st29" d="M139.1,190l3.3,1.6l6.3,1.5c2.8,0.5,4.7,3,4.3,5.8l-3.3,25.6l3.9,24.9L138,249l-0.9-9.2v-25.6L139.1,190
							z"/>
					</g>
				</g>
				<g>
					<g>
						<g>
							<path class="st30" d="M137.1,220c0,0,0-0.1,0-0.3c0-0.2,0.1-0.5,0.2-0.9c0.2-0.8,0.4-1.9,0.7-3.3c0.6-2.8,1.5-6.6,2.4-10.9
								c0.3-1.2,0.5-2.3,0.8-3.4l0,0.1c-0.4-0.4-0.7-0.8-1.1-1.1l-0.1-0.1l0-0.1c0.6-1.1,1.3-2.1,1.8-3l0,0.1c-0.8-2-1.5-3.6-2-4.8
								c-0.2-0.6-0.4-1-0.5-1.4c-0.1-0.3-0.2-0.5-0.2-0.5s0.1,0.2,0.2,0.5c0.1,0.3,0.3,0.8,0.6,1.3c0.5,1.2,1.2,2.8,2.1,4.8l0,0l0,0
								c-0.6,0.9-1.2,1.9-1.8,3l0-0.1c0.4,0.4,0.7,0.7,1.1,1.1l0,0l0,0.1c-0.2,1.1-0.5,2.2-0.7,3.4c-1,4.2-1.8,8.1-2.4,10.9
								c-0.3,1.4-0.6,2.5-0.8,3.3c-0.1,0.4-0.2,0.7-0.2,0.9C137.1,219.9,137.1,220,137.1,220z"/>
						</g>
					</g>
				</g>
			</g>
			<g>
				<g>
					<g>
						<path class="st29" d="M98.3,224.2l13.8-7.7l6.7-18c0.9-2.5,2.9-4.5,5.3-5.6l1.8-0.7l0,47.4l0.4,11.2l-7.5-2.2l3.8-22.6
							l-1.3-11.1l-1.3,5.4c-0.5,1.9-1.7,3.6-3.4,4.6l-14.3,7.4L98.3,224.2z"/>
					</g>
				</g>
				<g>
					<g>
						<polygon class="st8" points="98.5,224.6 97.3,224.9 100.6,232.7 102.1,232.1 						"/>
					</g>
				</g>
				<g>
					<g>
						<g>
							<path class="st30" d="M114.6,219.7c-0.1,0-0.3-0.9-1-1.7c-0.7-0.9-1.6-1.3-1.5-1.3c0-0.1,1,0.3,1.7,1.2
								C114.5,218.8,114.6,219.7,114.6,219.7z"/>
						</g>
					</g>
				</g>
				<g>
					<g>
						<g>
							<path class="st17" d="M99.9,224.3c0,0-0.1,0.1-0.1,0.2c0,0.1,0.1,0.3,0.3,0.2c0.2-0.1,0.2-0.2,0.1-0.3
								C100.1,224.3,100,224.3,99.9,224.3c0.1-0.1,0.2-0.1,0.4,0c0.1,0.1,0.2,0.2,0.2,0.3c0,0.2-0.1,0.3-0.3,0.4
								c-0.2,0-0.4,0-0.4-0.1c-0.1-0.1-0.1-0.3,0-0.4C99.8,224.3,99.9,224.3,99.9,224.3z"/>
						</g>
					</g>
				</g>
				<g>
					<g>
						<g>
							<path class="st17" d="M101.1,223.9c0,0-0.1,0.1-0.1,0.2c0,0.1,0.1,0.3,0.3,0.2c0.2-0.1,0.2-0.2,0.1-0.3
								C101.3,223.9,101.2,223.9,101.1,223.9c0.1-0.1,0.2-0.1,0.4,0c0.1,0.1,0.2,0.2,0.2,0.3c0,0.2-0.1,0.3-0.3,0.4
								c-0.2,0-0.4,0-0.4-0.1c-0.1-0.1-0.1-0.3,0-0.4C100.9,223.8,101.1,223.8,101.1,223.9z"/>
						</g>
					</g>
				</g>
				<g>
					<g>
						<g>
							<path class="st30" d="M125.9,220.8c0,0,0-0.1-0.1-0.3c0-0.2-0.1-0.5-0.1-0.8c-0.1-0.8-0.2-1.8-0.4-3.1
								c-0.3-2.7-0.8-6.3-1.3-10.3c-0.1-0.6-0.1-1.1-0.2-1.7l0,0l0,0c0.3-0.9,0.7-1.7,1-2.6l0,0.1c-0.3-0.8-0.7-1.6-1-2.3l0,0l0,0
								c0.6-2.2,1.1-4.1,1.5-5.4c0.2-0.6,0.3-1.1,0.4-1.5c0.1-0.3,0.2-0.5,0.2-0.5c0,0,0,0.2-0.1,0.5c-0.1,0.4-0.2,0.9-0.4,1.5
								c-0.3,1.3-0.8,3.2-1.4,5.4l0-0.1c0.3,0.7,0.7,1.5,1,2.3l0,0l0,0c-0.3,0.8-0.7,1.7-1,2.6l0-0.1c0.1,0.6,0.1,1.1,0.2,1.7
								c0.5,4,0.9,7.6,1.2,10.3c0.1,1.3,0.3,2.4,0.3,3.1c0,0.3,0.1,0.6,0.1,0.8C125.9,220.7,125.9,220.8,125.9,220.8z"/>
						</g>
					</g>
				</g>
				<g>
					<g>
						<g>
							<path class="st30" d="M122.5,226.2c0,0,0-0.1,0-0.2c0-0.2-0.1-0.4-0.1-0.6c-0.1-0.6-0.2-1.4-0.3-2.4c-0.2-2-0.6-4.8-1-7.9
								c-0.4-3.1-0.8-5.8-1.1-7.8c-0.1-1-0.3-1.8-0.3-2.4c0-0.3-0.1-0.5-0.1-0.6c0-0.1,0-0.2,0-0.2c0,0,0,0.1,0.1,0.2
								c0,0.2,0.1,0.4,0.1,0.6c0.1,0.6,0.3,1.4,0.4,2.4c0.3,2,0.8,4.8,1.2,7.8c0.4,3.1,0.7,5.9,0.9,7.9c0.1,1,0.2,1.8,0.2,2.4
								c0,0.3,0,0.5,0,0.7C122.6,226.1,122.6,226.2,122.5,226.2z"/>
						</g>
					</g>
				</g>
				<g>
					<g>
						<g>
							<path class="st30" d="M120.6,243c0,0,0.1,0.2,0.3,0.4c0.2,0.2,0.7,0.4,1.3,0.3c0.5-0.1,1.1-0.6,1.4-1.3
								c0.3-0.7,0.3-1.6,0.4-2.5c0.1-0.9,0-1.8-0.3-2.5c-0.3-0.7-0.8-1.2-1.2-1.6c-0.4-0.4-0.8-0.8-1-1c-0.2-0.3-0.2-0.5-0.2-0.5
								c0,0,0.1,0.2,0.3,0.4c0.2,0.3,0.5,0.6,1,1c0.4,0.4,1,0.9,1.3,1.6c0.3,0.8,0.3,1.7,0.3,2.6c-0.1,0.9-0.1,1.8-0.4,2.5
								c-0.3,0.7-0.9,1.3-1.5,1.4c-0.6,0.1-1.1-0.1-1.4-0.4c-0.1-0.1-0.2-0.2-0.2-0.3C120.6,243.1,120.6,243,120.6,243z"/>
						</g>
					</g>
				</g>
				<g>
					<g>
						<path class="st30" d="M115.5,225.3c0,0,0.4-5.3,4.6-5.7C120.1,219.5,120.2,223.8,115.5,225.3z"/>
					</g>
				</g>
			</g>
			<g>
				<g>
					<g>
						<g>
							<path class="st24" d="M137.8,244.9c0.3,0.2,12.1,7.9,12.1,7.9l1.4-1.1l0.6-17.8l-11.5-8.7l-1.6,0.5L137.8,244.9z"/>
						</g>
					</g>
					<g>
						<g>
							<polygon class="st8" points="140.3,225.5 140.7,244.7 138.2,244.7 139.1,225.9 							"/>
						</g>
					</g>
					<g>
						<g>
							<path class="st23" d="M144.1,249.1c0,0,0.3,0.8,1.4,0.9c0,0,0.1,0,0.1,0.1c0.2,0.4,0.7,0.7,1.2,0.7c0.4,0,0.8-0.1,1.3-0.4
								c0.6-0.4,1.8-2.9,1.8-2.9l2.7-5.9l-4.5-1.2l-5.7,1.8c0,0.1-1.3,5.5-1.3,5.5s1.1,0.3,1.6-0.8s1-1.9,1-1.9l0.4,2.4l-1.6,0.6
								c0,0-0.2,0.9,0.7,1.2L144.1,249.1z"/>
						</g>
					</g>
				</g>
				<g>
					<g>
						<path class="st29" d="M146.1,207.4l7.5,13.8l-6.1,18.1l6.8,3.8l8.6-20.1c0.6-1.5,0.6-3.2-0.1-4.7l-10.6-22.7L146.1,207.4z"/>
					</g>
				</g>
				<g>
					<g>
						<polygon class="st8" points="147.5,239.2 146.9,240.6 153.2,244 153.9,242.8 						"/>
					</g>
				</g>
				<g>
					<g>
						<g>
							<path class="st30" d="M147.5,239.2C147.5,239.2,147.5,239.2,147.5,239.2c0-0.2,0.1-0.3,0.1-0.4c0.1-0.2,0.2-0.6,0.3-1
								c0.3-0.9,0.7-2.2,1.2-3.8c1.1-3.2,2.6-7.8,4.3-12.9l0,0.1c-0.9-1.5-1.8-3-2.7-4.7c-1.6-2.9-3.2-5.8-4.5-8.4
								c-0.6-1.3-1.2-2.6-1.7-3.8c-0.5-1.2-0.7-2.5-0.6-3.6c0.1-1.1,0.3-2.1,0.7-2.9c0.4-0.8,0.9-1.4,1.3-1.8
								c0.5-0.4,0.9-0.7,1.2-0.8c0.3-0.1,0.5-0.2,0.5-0.2c0,0-0.7,0.2-1.6,1c-0.4,0.4-0.9,1-1.3,1.8c-0.4,0.8-0.6,1.8-0.6,2.9
								c0,1.1,0.1,2.3,0.6,3.5c0.5,1.2,1.1,2.4,1.8,3.8c1.3,2.6,2.8,5.4,4.5,8.4c0.9,1.6,1.8,3.2,2.7,4.7l0,0l0,0.1
								c-1.8,5.2-3.3,9.7-4.4,12.9c-0.6,1.6-1,2.9-1.3,3.8c-0.2,0.4-0.3,0.8-0.4,1C147.6,239,147.6,239,147.5,239.2
								C147.5,239.2,147.5,239.2,147.5,239.2z"/>
						</g>
					</g>
				</g>
				<g>
					<g>
						<g>
							<path class="st30" d="M158.6,221c0,0-0.3-0.1-0.7-0.3c-0.5-0.2-1.1-0.3-1.8-0.3c-0.7,0-1.4,0.2-1.8,0.4
								c-0.4,0.2-0.7,0.3-0.7,0.3c0,0,0.2-0.2,0.7-0.5c0.4-0.2,1.1-0.4,1.9-0.5c0.8,0,1.4,0.1,1.9,0.3
								C158.4,220.8,158.6,221,158.6,221z"/>
						</g>
					</g>
				</g>
				<g>
					<g>
						<polygon class="st30" points="144.6,204.1 150,222.1 150.7,216.2 						"/>
					</g>
				</g>
				<g>
					<g>
						<g>
							<path class="st17" d="M153.5,239.4c0,0-0.1,0.1-0.1,0.2c0,0.1,0.1,0.3,0.3,0.2c0.2-0.1,0.2-0.2,0.1-0.3
								C153.7,239.4,153.6,239.4,153.5,239.4c0.1-0.1,0.2-0.1,0.4,0c0.1,0.1,0.2,0.2,0.2,0.3c0,0.2-0.1,0.3-0.3,0.4
								c-0.2,0-0.4,0-0.4-0.1c-0.1-0.1-0.1-0.3,0-0.4C153.3,239.4,153.5,239.4,153.5,239.4z"/>
						</g>
					</g>
				</g>
				<g>
					<g>
						<g>
							<path class="st17" d="M154,238.1c0,0-0.1,0.1-0.1,0.2c0,0.1,0.1,0.3,0.3,0.2c0.2-0.1,0.2-0.2,0.1-0.3
								C154.2,238.1,154.1,238.1,154,238.1c0.1-0.1,0.2-0.1,0.4,0c0.1,0.1,0.2,0.2,0.2,0.3c0,0.2-0.1,0.3-0.3,0.4
								c-0.2,0-0.4,0-0.4-0.1c-0.1-0.1-0.1-0.3,0-0.4C153.9,238.1,154,238.1,154,238.1z"/>
						</g>
					</g>
				</g>
				<g>
					<g>
						<path class="st30" d="M161.4,215.2c-0.8,0.4-1.1,1.6-1,2.5c0.1,0.9,0.4,1.8,0.4,2.7c0,0.6-0.2,1.3-0.3,1.9
							c-0.1,0.6-0.2,1.3,0.1,1.9c0.2,0.6,0.9,1.1,1.5,1l0.6-1.3c1-2,1-4.4-0.1-6.4L161.4,215.2z"/>
					</g>
				</g>
			</g>
		</g>
		<path class="st4" d="M248.8,342.8c1.1-2.9,5.2-5.1,10.1-5.1c3,0,5.7,0.8,7.5,2.1c0,0,0-0.1,0-0.1c0-3.4,4-6.2,7.3-6.2
			c3,0,5.5,1.5,6.6,3.6c1.1-1.1,2.7-1.8,4.5-1.8c3,0,5.6,1.7,5.9,4.3c0.9-0.8,2.2-1.1,3.7-1.1c2.8,0,5,1.8,5,4.1c0,0.1,0,0.1,0,0.2
			H248.8z"/>
		<path class="st31" d="M463.3,342.8c0,0,4.4-6.2-2.5-10.2c0,0,2.1-8.5-7.4-8.5c0,0,0-6.6-6.6-5.7c-6.6,0.8-5.9,6.2-5.9,6.2
			s-26.4-1.6-26.9,18.2H463.3z"/>
		<g>
			<g>
				<path class="st32" d="M244.7,265.6c0,0,7-5.3,15.1-12.3c8.1-7,21.9-18.3,30.1-20c8.1-1.7,48.2-2.1,68.4-2.1
					c22.4,0,47.3-1.7,54.1,2.3c6.8,4,28.6,30.6,28.6,30.6l-69.2,10.6L244.7,265.6z"/>
				<path class="st33" d="M192.5,328.2c0,0-21.3-3.1-21.3-6c0-2.8-1.4-30.9,2.3-36.9c3.7-6,11.9-13.3,31.2-16.7
					c19.3-3.4,35.5-4,39.7-3.7c4.3,0.3,14.2,2.8,44,2.6c29.8-0.3,151.8-4.8,151.8-4.8s7.1,6.8,7.9,17c0.9,10.2,2.6,13.9,2.6,13.9
					l5.1,4.5c0,0,2,1.7,2.6,7.1c0.6,5.4,2.2,10.8-2,14.8c-5.1,4.8-11.9,5.4-11.9,5.4L192.5,328.2z"/>
				<path class="st34" d="M458.3,305.2c-0.6-5.4-2.6-7.1-2.6-7.1l-5.1-4.5c0,0-0.9-3.7-1.7-13.9c-0.9-10.2-8.8-17-8.8-17
					s-122,4.5-151.8,4.8c-29.8,0.3-39.7-2.3-44-2.6c-4.3-0.3-20.4,0.3-39.7,3.7c-19.3,3.4-27.5,10.8-31.2,16.7
					c-3.7,6-2.3,34-2.3,36.9c0,2.8,21.3,6,21.3,6l11.4-0.1c-0.9-2.7-1.4-5.6-1.4-8.6c0-15.2,12.3-27.4,27.4-27.4
					s27.4,12.3,27.4,27.4c0,0,0,0.1,0,0.1c0,0,0,0,0,0.1c0,2.7-0.4,5.4-1,7.8l126.2-1.4c-0.5-2.1-0.8-4.3-0.8-6.6
					c0-15.2,12.3-27.4,27.4-27.4c15.2,0,27.4,12.3,27.4,27.4c0,0,0,0.1,0,0.1c0,0,0,0,0,0.1c0,2-0.2,3.9-0.6,5.8l8.2-0.1
					c0,0,6.8-0.6,11.9-5.4C460.5,316,458.9,310.6,458.3,305.2z"/>
				<path class="st9" d="M446.2,316.3c-4.3-3.1-4-9.9-7.4-16.7c-3.4-6.8-11.3-13-24.1-14.5c-13.3-1.5-26.9,3.4-35.2,11.6
					c-7.6,7.6-9.9,19-9.9,19l-103,0.9c0,0,0-9.1-10.5-21.6c-10.5-12.5-40.8-10.8-50.8-0.3c-6.9,7.3-11.3,19.3-11.3,19.3
					s-9.6,0.2-12.8-0.3c-2.6-0.4-10.4-3.5-10.4-3.5c0,6,0.3,10.9,0.3,12c0,2.8,21.3,6,21.3,6l11.4-0.1c-0.9-2.7-1.4-5.6-1.4-8.6
					c0-15.2,12.3-27.4,27.4-27.4c15.2,0,27.4,12.3,27.4,27.4c0,0,0,0.1,0,0.1c0,0,0,0,0,0.1c0,2.7-0.4,5.4-1,7.8l126.2-1.4
					c-0.5-2.1-0.8-4.3-0.8-6.6c0-15.2,12.3-27.4,27.4-27.4c15.2,0,27.4,12.3,27.4,27.4c0,0,0,0.1,0,0.1c0,0,0,0,0,0.1
					c0,2-0.2,3.9-0.6,5.8l8.2-0.1c0,0,6.3-0.5,11.3-4.8C452.5,319.5,448.5,318,446.2,316.3z"/>
				<g>
					<g>
						<circle class="st35" cx="231.1" cy="318.4" r="24.9"/>
						<path class="st36" d="M240.5,295.4c7.2,4.4,13.6,11.5,14,20.6c0.5,12.4-5.1,26.5-26,25.9c-3.3-0.1-7.2-0.9-10.1-2.1
							c3.7,2.3,9.2,3.3,13.9,3.3c13.7,0,23.9-10.9,23.9-24.7C256,308.1,249.6,299.1,240.5,295.4z"/>
						<circle class="st37" cx="231.1" cy="318.4" r="15.2"/>
						<circle class="st38" cx="231.1" cy="318.4" r="13.9"/>
						<circle class="st39" cx="231.1" cy="318.4" r="9.9"/>
						<g>
							<g>
								<path class="st38" d="M232.5,324.9c0,0.8-0.6,1.4-1.4,1.4l0,0c-0.8,0-1.4-0.6-1.4-1.4v-13.1c0-0.8,0.6-1.4,1.4-1.4l0,0
									c0.8,0,1.4,0.6,1.4,1.4V324.9z"/>
								<path class="st38" d="M237.7,316.8c0.8,0,1.4,0.6,1.4,1.4l0,0c0,0.8-0.6,1.4-1.4,1.4h-13.1c-0.8,0-1.4-0.6-1.4-1.4l0,0
									c0-0.8,0.6-1.4,1.4-1.4H237.7z"/>
							</g>
							<g>
								<path class="st38" d="M236.8,322c0.6,0.6,0.6,1.5,0,2l0,0c-0.6,0.6-1.5,0.6-2,0l-9.3-9.3c-0.6-0.6-0.6-1.5,0-2l0,0
									c0.6-0.6,1.5-0.6,2,0L236.8,322z"/>
								<path class="st38" d="M234.7,312.6c0.6-0.6,1.5-0.6,2,0l0,0c0.6,0.6,0.6,1.5,0,2l-9.3,9.3c-0.6,0.6-1.5,0.6-2,0l0,0
									c-0.6-0.6-0.6-1.5,0-2L234.7,312.6z"/>
							</g>
							<circle class="st38" cx="231.1" cy="318.4" r="5.7"/>
						</g>
						<path class="st40" d="M208.6,317.1l2.1-1.6c0,0,0.2-7.8,7.9-13.5c7-5.3,15.5-4.4,15.5-4.4l0.8-1.6c0,0-10.7-1.3-18.1,4.7
							C207.9,307.9,208.6,317.1,208.6,317.1z"/>
						<circle class="st37" cx="231.1" cy="311.6" r="0.7"/>
						<circle class="st37" cx="235.8" cy="313.5" r="0.7"/>
						<circle class="st37" cx="238" cy="318.3" r="0.7"/>
						<circle class="st37" cx="236" cy="323.4" r="0.7"/>
						<circle class="st37" cx="231" cy="325.1" r="0.7"/>
						<circle class="st37" cx="226.3" cy="323.1" r="0.7"/>
						<circle class="st37" cx="224.4" cy="318.3" r="0.7"/>
						<circle class="st37" cx="226.3" cy="313.5" r="0.7"/>
					</g>
					<circle class="st37" cx="231.1" cy="318.4" r="3.1"/>
				</g>
				<g>
					<g>
						<circle class="st35" cx="410.4" cy="319.8" r="24.9"/>
						<path class="st36" d="M419.7,296.9c7.2,4.4,13.6,11.5,14,20.6c0.5,12.4-5.1,26.5-26,25.9c-3.3-0.1-7.2-0.9-10.1-2.1
							c3.7,2.3,9.2,3.3,13.9,3.3c13.7,0,23.9-10.9,23.9-24.7C435.3,309.5,428.8,300.6,419.7,296.9z"/>
						<circle class="st37" cx="410.4" cy="319.8" r="15.2"/>
						<circle class="st38" cx="410.4" cy="319.8" r="13.9"/>
						<circle class="st39" cx="410.4" cy="319.8" r="9.9"/>
						<g>
							<g>
								<path class="st38" d="M411.8,326.3c0,0.8-0.6,1.4-1.4,1.4l0,0c-0.8,0-1.4-0.6-1.4-1.4v-13.1c0-0.8,0.6-1.4,1.4-1.4l0,0
									c0.8,0,1.4,0.6,1.4,1.4V326.3z"/>
								<path class="st38" d="M416.9,318.2c0.8,0,1.4,0.6,1.4,1.4l0,0c0,0.8-0.6,1.4-1.4,1.4h-13.1c-0.8,0-1.4-0.6-1.4-1.4l0,0
									c0-0.8,0.6-1.4,1.4-1.4H416.9z"/>
							</g>
							<g>
								<path class="st38" d="M416.1,323.5c0.6,0.6,0.6,1.5,0,2l0,0c-0.6,0.6-1.5,0.6-2,0l-9.3-9.3c-0.6-0.6-0.6-1.5,0-2l0,0
									c0.6-0.6,1.5-0.6,2,0L416.1,323.5z"/>
								<path class="st38" d="M414,314.1c0.6-0.6,1.5-0.6,2,0l0,0c0.6,0.6,0.6,1.5,0,2l-9.3,9.3c-0.6,0.6-1.5,0.6-2,0l0,0
									c-0.6-0.6-0.6-1.5,0-2L414,314.1z"/>
							</g>
							<circle class="st38" cx="410.4" cy="319.8" r="5.7"/>
						</g>
						<path class="st40" d="M387.8,318.6l2.1-1.6c0,0,0.2-7.8,7.9-13.5c7-5.3,15.5-4.4,15.5-4.4l0.8-1.6c0,0-10.7-1.3-18.1,4.7
							C387.1,309.3,387.8,318.6,387.8,318.6z"/>
						<circle class="st37" cx="410.4" cy="313" r="0.7"/>
						<circle class="st37" cx="415.1" cy="314.9" r="0.7"/>
						<circle class="st37" cx="417.3" cy="319.7" r="0.7"/>
						<circle class="st37" cx="415.3" cy="324.8" r="0.7"/>
						<circle class="st37" cx="410.3" cy="326.6" r="0.7"/>
						<circle class="st37" cx="405.6" cy="324.5" r="0.7"/>
						<circle class="st37" cx="403.7" cy="319.7" r="0.7"/>
						<circle class="st37" cx="405.6" cy="314.9" r="0.7"/>
					</g>
					<circle class="st37" cx="410.4" cy="319.8" r="3.1"/>
				</g>
				<path class="st9" d="M269.2,263.5c0,0,19.6-25.5,22.4-26.4c2.8-0.9,56.5-2,56.5-1.1s-2.3,25.5-2.3,25.5L269.2,263.5z"/>
				<polygon class="st9" points="355.5,236.5 353.5,260.4 422.1,259.2 406.8,235.7 				"/>
				<g>
					<path class="st41" d="M192.2,278c-4.5,0.5-8.2,3.5-10.8,6.8c-3.1,4-5,8.9-0.4,8.8c4.3-0.1,6.3-3.1,10.1-6.7
						C194.9,283.2,197.3,277.4,192.2,278z"/>
					
						<ellipse transform="matrix(0.6747 -0.7381 0.7381 0.6747 -150.2761 229.0575)" class="st42" cx="184.7" cy="285" rx="6.6" ry="1.8"/>
					<path class="st43" d="M195,278.6l-1-0.4c0,0,2.3,2-4.8,9.7c-6.1,6.7-10.9,4.6-10.9,4.6l0.2,0.8c0,0,0.5,1.6,4.9,0.6
						c4.4-1,9.4-7.4,11.5-11.2C197,279,195,278.6,195,278.6z"/>
				</g>
				<path class="st44" d="M448.7,277.8c0,0-9.6-0.2-10.7-0.2c-1,0-2.5,1.1-2.5,2.5c0,1.4,0.8,10.3,1,11.4c0.3,1.1,1.8,2.2,3.5,2.2
					c1.8,0,10.6,0.3,10.6,0.3L448.7,277.8z"/>
				<polygon class="st45" points="438,279.4 438.9,291.7 442.6,291.7 441.7,279.2 				"/>
				<polygon class="st46" points="252.8,271.5 230.7,281.1 440.6,274.9 432.1,265.8 				"/>
				<path class="st46" d="M271.8,314.2l92.8-1.3c0,0-8.9-6.8-37.4-7.7C298.6,304.4,271.8,314.2,271.8,314.2z"/>
				<g>
					<path class="st33" d="M270.2,317.1l-0.1-0.3c-0.1-0.2-6.8-23.6-7-33.5c-0.3-12.8,3.4-16.4,3.5-16.6c0.2-0.2,0.4-0.2,0.6,0
						c0.2,0.2,0.2,0.4,0,0.6c0,0-3.5,3.6-3.3,15.9c0.2,9.2,6.1,30.1,6.9,32.9l79-0.8c1-2.3,8.3-20.2,7.9-31.9
						c-0.4-12.4-7.5-17.5-7.6-17.6c-0.2-0.1-0.2-0.4-0.1-0.6c0.1-0.2,0.4-0.2,0.6-0.1c0.3,0.2,7.5,5.4,7.9,18.2
						c0.4,12.7-8,32.3-8.1,32.5l-0.1,0.3l-0.3,0L270.2,317.1z"/>
				</g>
				<path class="st33" d="M351.5,277.2c0,0.9-0.7,1.6-1.6,1.6l-13.3,0c-0.9,0-1.6-0.7-1.6-1.6l0,0c0-0.9,0.7-1.6,1.6-1.6l13.3,0
					C350.8,275.6,351.5,276.4,351.5,277.2L351.5,277.2z"/>
				<polygon class="st9" points="284.8,237.1 252.4,262.9 263,264.3 287.3,236.8 				"/>
				<path class="st46" d="M195.1,302.7c0,0,1.3-5.6,7.9-11.5c5.2-4.7,19.3-6.1,19.3-6.1l3.8-4c0,0-18.5-0.5-27.2,6.1
					c-8.1,6.1-9.9,19.3-9.9,19.3L195.1,302.7z"/>
			</g>
			<path class="st32" d="M182.8,284.8c-0.1,1.8-0.2,3.6-0.3,5.4c0.9-0.3,1.4-1.4,2.3-1.5c0.3,0,0.6,0,0.8,0.1
				c0.7,0.2,1.4,0.4,1.9,0.8c-0.3-0.8-0.6-1.7-0.9-2.5c0-0.1-0.1-0.2-0.2-0.3c-0.1,0-0.2,0-0.3,0c-0.7,0.2-1.4,0.4-2.1,0.6
				c0.5-1.7,1.1-3.4,1.9-5c-0.9-0.4-1.8-0.7-2.8-1.1c-0.1,0-0.1,0-0.2,0c-0.1,0-0.1,0.1-0.2,0.1c-1.3,1.4-2.5,2.7-3.8,4.1
				C180.1,284.5,181.6,284.7,182.8,284.8z"/>
			<path class="st32" d="M308.4,239.8c0.1,0.3-0.1,0.7-0.3,1c-2,2.7-3.9,5.3-5.9,8c1.8,1.1,2.8,3.2,3.1,5.2c0.3,2.1,0.1,4.2-0.1,6.3
				c0.3-2,0.8-4,1.4-5.9c0.3-0.8,0.5-1.6,0.5-2.4c-0.1-0.8-0.5-1.7-1.3-1.9c-0.4-0.1-0.6-0.6-0.6-1c0.1-0.4,0.3-0.8,0.5-1.1
				c2-2.8,3.9-5.6,5.9-8.3c0.4-0.6,0.2-1.3-0.1-2c-0.6-1.5-1.1-2.9-1.7-4.4c-0.8,0.2-1.7,0.3-2.6,0.5c-1.1,0.3-1.1,0.2-0.9,1.2
				C306.7,236.6,308.4,238.3,308.4,239.8z"/>
			<path class="st32" d="M311.4,242.5c0.1,1.8,0.4,3.6,0.9,5.4c0.9,0,1.7-0.5,2.6-0.9c0.9-0.3,2-0.3,2.5,0.5c0.2,0.4,0.3,0.9,0.7,1
				c0.2,0,0.3,0,0.4-0.1c1.3-0.5,2.7-1,4-1.6c1.1-0.4,2.1-0.8,2.9-1.7c-2.1,0.8-4.2,1.5-6.3,2.3c-0.2-1.3-0.8-2.5-1.7-3.4
				c-1.1,0.8-2.2,1.6-3.4,2.3c0.4-1.8,0.6-3.6,0.6-5.4c-1.5,0.5-3.1,0.4-4.6,1c-1.6,0.6-3,2.1-3.3,3.8
				C307.8,244.1,309.8,243.4,311.4,242.5z"/>
			<path class="st32" d="M396.5,255.7c-3.5,0.8-6.9,1.6-10.4,2.4c1.2-1.4,2.4-2.8,3.6-4.2c-5.2-0.4-10.4-0.8-15.6-1.2
				c4.7-1.9,9.5-3.7,14.3-5.2c-0.8,0.7-1.3,1.7-1.5,2.7c4.1-1.2,8-2.8,11.8-4.8c0,1.4,0.2,2.7,0.7,4c2.9-0.2,5.8-0.5,8.7-0.7
				c0.8,4.1,1.9,8.1,3.4,12.1c-0.5-0.8-10.8,1.2-12.2,1.3c-1.8,0.2-2.8,0.8-3.1-0.8C396,259.8,396.5,257.3,396.5,255.7z"/>
		</g>
		<g>
			<g>
				<g>
					<g>
						<path class="st4" d="M114.2,157.8c1.1-2,1.8-4.4,1.8-6.8c0-7.7-6.2-14-13.8-14c-1.3,0-2.5,0.2-3.7,0.5
							c5.8,1.6,10.1,7,10.1,13.5c0,6.4-4.3,11.8-10.1,13.5c1.2,0.3,2.4,0.5,3.7,0.5c2.7,0,5.2-0.8,7.3-2.1l6.5,2.5L114.2,157.8z"/>
					</g>
				</g>
			</g>
			<g>
				<g>
					<g>
						<g>
							<g>
								<path class="st47" d="M92.4,137c0,0,0.1,0,0.2,0c0.2,0,0.4,0,0.7,0c0.3,0,0.7,0,1.2,0.1c0.2,0,0.5,0.1,0.7,0.1
									c0.3,0.1,0.5,0.1,0.8,0.2c1.2,0.3,2.6,0.8,4,1.8c1.4,0.9,2.9,2.3,4,4.1c1.2,1.8,2,4.1,2.1,6.6c0.2,2.5-0.4,5.3-1.9,7.8
									c-1.4,2.5-3.8,4.6-6.7,5.8c-1.4,0.6-3,0.9-4.6,1c-1.6,0.1-3.3-0.1-4.8-0.6l-0.1,0l0.1,0c-2.8,1-5.5,1.9-8.1,2.8l-0.3,0.1
									l0.1-0.3c0.7-2.3,1.4-4.6,2.1-6.7l0,0.2c-1.5-1.7-2.6-3.8-3.1-5.9c-0.5-2.1-0.5-4.2-0.1-6.1c0.4-1.9,1.1-3.6,2.1-5
									c0.9-1.4,2.1-2.5,3.2-3.3c0.5-0.4,1.1-0.8,1.7-1.1c0.6-0.3,1.1-0.6,1.6-0.7c0.5-0.2,1-0.4,1.5-0.5c0.5-0.1,0.9-0.2,1.2-0.3
									c0.4,0,0.7-0.1,1-0.1c0.3,0,0.5,0,0.7,0c0.2,0,0.3,0,0.4,0C92.4,137,92.4,137,92.4,137c0,0-0.1,0-0.2,0c-0.1,0-0.3,0-0.4,0
									c-0.2,0-0.4,0-0.7,0.1c-0.3,0-0.6,0.1-1,0.2c-0.4,0-0.8,0.2-1.2,0.3c-0.5,0.1-0.9,0.3-1.4,0.5c-0.5,0.2-1,0.5-1.6,0.7
									c-0.5,0.3-1.1,0.6-1.6,1.1c-1.1,0.8-2.2,1.9-3.1,3.3c-0.9,1.4-1.7,3-2,4.9c-0.4,1.9-0.4,3.9,0.2,5.9c0.5,2,1.5,4,3.1,5.7
									l0.1,0.1l0,0.1c-0.7,2.2-1.4,4.4-2.1,6.7l-0.2-0.2c2.6-0.9,5.3-1.8,8.1-2.8l0.1,0l0.1,0l0.1,0c1.5,0.5,3.1,0.7,4.7,0.6
									c1.6-0.1,3.1-0.4,4.5-1c2.8-1.2,5.1-3.2,6.5-5.6c1.4-2.4,2-5.1,1.9-7.6c-0.1-2.5-0.9-4.7-2-6.5c-1.1-1.8-2.5-3.2-3.9-4.1
									c-1.4-1-2.8-1.5-3.9-1.8c-0.3-0.1-0.6-0.1-0.8-0.2c-0.3-0.1-0.5-0.1-0.7-0.1c-0.5-0.1-0.8-0.1-1.1-0.1c-0.3,0-0.5,0-0.7-0.1
									C92.5,137,92.4,137,92.4,137z"/>
							</g>
						</g>
					</g>
				</g>
				<g>
					<g>
						<g>
							<g>
								<g>
									<polygon class="st47" points="84.3,151.7 86.5,149.6 90.5,153.2 98.6,145.5 100.6,147.6 90.2,157.3 									"/>
								</g>
							</g>
						</g>
					</g>
				</g>
			</g>
		</g>
		<path class="st31" d="M243.3,342.8c0,0-8.4-3.9-8.2-15.6c0,0,7.4,1.1,10.9,8.7c0,0,1.6-13.4,8.9-17.9c0,0,3.6,10.4-1.1,18
			c0,0,8-5,16.4-3.6c0,0-5.6,9.2-14.9,10.4H243.3z"/>
		<path class="st31" d="M224.6,342.8c0,0-2.5-11.2-14.3-9.9c0,0,0.3,5.6,6.1,7.9c0,0-9-4-17.2-1.6c0,0,1.1,3.4,3.5,3.6H224.6z"/>
		<path class="st2" d="M404.8,342.8c0,0-7.7-14.4-23.8-15.6c0,0,1.8,8.8,9.6,11.9c0,0-11.9-3.4-19.4-1.8c0,0,1.5,5.5,4.8,5.5H404.8z
			"/>
		<path class="st2" d="M435.3,332.4c0,0-12.4,0.6-14.7,10.4h22.7c0,0,2.7-0.9,2.7-3.6c0,0-5.4-1.7-15.6,1.2
			C430.4,340.4,434.4,339.1,435.3,332.4z"/>
		<path class="st1" d="M127.8,41.8c0,0,4.1-6.7,13.8-6c0,0,14.1-11.2,29.2-1.5c0,0,16-2.4,27.9,2.1c7.9,3,10.5,6.1,10.5,6.1
			L127.8,41.8z"/>
		<path class="st1" d="M214.8,60.7c0,0,2.6-4.6,8.9-4.1c0,0,9.2-7.6,18.9-1c0,0,10.4-1.6,18.1,1.4c5.1,2,6.8,4.2,6.8,4.2L214.8,60.7
			z"/>
	</g>
	<polygon class="st48" points="72.2,241.7 67.6,264.3 69.1,247.3 68.7,241.8 	"/>
</g>
</svg>
